STARTFONT 2.1
FONT -FontForge-Butcherman-Book-R-Normal--32-320-72-72-P-173-ISO10646-1
SIZE 32 72 72
FONTBOUNDINGBOX 48 62 -3 -21
COMMENT "Generated by fontforge, http://fontforge.sourceforge.net"
COMMENT "Copyright (c) 2011, Typomondo, with Reserved Font Name  "Butcherman"."
STARTPROPERTIES 40
FOUNDRY "FontForge"
FAMILY_NAME "Butcherman"
WEIGHT_NAME "Book"
SLANT "R"
SETWIDTH_NAME "Normal"
ADD_STYLE_NAME ""
PIXEL_SIZE 32
POINT_SIZE 320
RESOLUTION_X 72
RESOLUTION_Y 72
SPACING "P"
AVERAGE_WIDTH 173
CHARSET_REGISTRY "ISO10646"
CHARSET_ENCODING "1"
FONTNAME_REGISTRY ""
CHARSET_COLLECTIONS "ISO8859-2 ISO8859-9 ISO8859-4 ISO10646-1"
FONT_NAME "Butcherman-Regular"
FACE_NAME "Butcherman Regular"
COPYRIGHT "Copyright (c) 2011, Typomondo, with Reserved Font Name  "Butcherman"."
FONT_VERSION "001.004"
FONT_ASCENT 26
FONT_DESCENT 6
UNDERLINE_POSITION -3
UNDERLINE_THICKNESS 2
X_HEIGHT 23
CAP_HEIGHT 23
DEFAULT_CHAR 3
RAW_ASCENT 799
RAW_DESCENT 200
NORM_SPACE 5
RELATIVE_WEIGHT 40
RELATIVE_SETWIDTH 50
SUPERSCRIPT_X 0
SUPERSCRIPT_Y 11
SUPERSCRIPT_SIZE 19
SUBSCRIPT_X 0
SUBSCRIPT_Y 2
SUBSCRIPT_SIZE 19
AVG_LOWERCASE_WIDTH 185
AVG_UPPERCASE_WIDTH 177
ENDPROPERTIES
CHARS 331
STARTCHAR NULL.dup1
ENCODING 0
SWIDTH 161 0
DWIDTH 5 0
BBX 1 1 0 0
BITMAP
00
ENDCHAR
STARTCHAR CR
ENCODING 13
SWIDTH 161 0
DWIDTH 5 0
BBX 1 1 0 0
BITMAP
00
ENDCHAR
STARTCHAR space
ENCODING 32
SWIDTH 161 0
DWIDTH 5 0
BBX 1 1 0 0
BITMAP
00
ENDCHAR
STARTCHAR exclam
ENCODING 33
SWIDTH 350 0
DWIDTH 11 0
BBX 9 39 1 1
BITMAP
1000
7F00
FF80
FF80
FF00
7F00
7F00
7F00
7F00
7F00
7F00
7F00
7E00
3E00
3E00
3E00
3E00
3E00
3E00
3E00
3E00
3E00
3E00
3E00
1C00
0200
0000
0000
0000
FF80
FF80
7F80
7F80
7F80
7F80
7F80
7F80
7F80
6000
ENDCHAR
STARTCHAR quotedbl
ENCODING 34
SWIDTH 541 0
DWIDTH 17 0
BBX 15 12 1 12
BITMAP
0818
FEFE
7E7E
7E7C
7E7C
7C7C
7C3C
3C3C
3C3C
3C3C
3C38
1C38
ENDCHAR
STARTCHAR numbersign
ENCODING 35
SWIDTH 583 0
DWIDTH 19 0
BBX 18 28 0 -3
BITMAP
00C180
00C180
01C380
018380
018700
038300
038300
1FFFC0
1FFF80
1FFF80
1FFF80
1FFF80
061C00
0E1C00
0E1C00
0C1800
0C1800
1C3800
FFFF00
FFFE00
FFFC00
FFFC00
303000
306000
306000
706000
70E000
60C000
ENDCHAR
STARTCHAR dollar
ENCODING 36
SWIDTH 534 0
DWIDTH 17 0
BBX 15 40 1 -9
BITMAP
0180
0180
0380
0380
0380
0300
0180
01C0
0FF0
1FF8
3FFC
7FFE
7FFE
FFFE
FFFE
FFFE
FFFE
FEFC
FE7C
FE7E
7F80
7FE0
3FF0
1FF8
07F8
00F8
7E78
7EF8
3FF8
3FF0
1FF0
0FE0
0100
0100
0300
0300
0300
0380
0300
0280
ENDCHAR
STARTCHAR percent
ENCODING 37
SWIDTH 828 0
DWIDTH 27 0
BBX 25 28 1 -3
BITMAP
00018000
00038000
3C038000
7E078000
FF070000
FF070000
FF070000
FF070000
E7060000
E70E1C00
E70E3E00
E70C3F00
671C7F00
7E1C3F00
7E383F00
28383700
00383700
00787700
00706780
00707700
00607F00
00603E00
00601C00
00E00000
00C00000
00C00000
00C00000
01400000
ENDCHAR
STARTCHAR ampersand
ENCODING 38
SWIDTH 522 0
DWIDTH 17 0
BBX 14 16 1 4
BITMAP
07C0
07C0
07C0
07C0
07C0
FFFC
FFFC
FFFC
FFFC
FFFC
7FFC
07C0
07C0
07C0
07C0
0780
ENDCHAR
STARTCHAR quotesingle
ENCODING 39
SWIDTH 300 0
DWIDTH 10 0
BBX 7 12 1 12
BITMAP
08
FE
7E
7E
7E
7C
7C
3C
3C
3C
3C
3C
ENDCHAR
STARTCHAR parenleft
ENCODING 40
SWIDTH 372 0
DWIDTH 12 0
BBX 10 32 1 -4
BITMAP
0040
00C0
03C0
07C0
0FC0
1FC0
1FC0
3FC0
7FC0
7F80
7F80
7F80
7E00
FC00
FC00
FC00
FC00
FC00
FC00
FC00
FC00
FC00
7C00
7E00
7E00
3F00
3F80
1F80
1F80
0F80
0780
0100
ENDCHAR
STARTCHAR parenright
ENCODING 41
SWIDTH 338 0
DWIDTH 11 0
BBX 8 31 1 -4
BITMAP
80
F8
FC
FE
FF
FF
FF
FF
FF
FF
7F
BF
1F
1F
0F
0F
0F
0F
0F
0F
1F
1F
1E
1E
1E
1E
3C
FC
F8
F0
E0
ENDCHAR
STARTCHAR asterisk
ENCODING 42
SWIDTH 513 0
DWIDTH 16 0
BBX 15 19 1 7
BITMAP
0020
0860
0860
1C70
1CE0
1EE0
0FE0
0FC0
EFF0
FFFE
FFFC
FFFC
07C0
0FC0
0FE0
0EE0
1EF0
1C70
2400
ENDCHAR
STARTCHAR plus
ENCODING 43
SWIDTH 458 0
DWIDTH 15 0
BBX 12 13 1 6
BITMAP
0400
0F80
0F80
0F00
0F10
FFF0
FFF0
FFF0
FFF0
0F80
0F00
0F00
0F00
ENDCHAR
STARTCHAR comma
ENCODING 44
SWIDTH 361 0
DWIDTH 12 0
BBX 9 16 1 -5
BITMAP
7F80
7F80
7F80
7F80
7F80
7F80
7F80
FF80
FF80
4780
0780
0780
0700
0700
0700
0700
ENDCHAR
STARTCHAR hyphen
ENCODING 45
SWIDTH 478 0
DWIDTH 15 0
BBX 12 6 2 9
BITMAP
FFF0
FFE0
FFE0
FFE0
FFE0
3B60
ENDCHAR
STARTCHAR period
ENCODING 46
SWIDTH 374 0
DWIDTH 12 0
BBX 9 10 1 1
BITMAP
FF80
7F80
7F80
7F80
7F80
7F80
7F80
7F80
3F80
2000
ENDCHAR
STARTCHAR slash
ENCODING 47
SWIDTH 291 0
DWIDTH 9 0
BBX 9 28 0 -3
BITMAP
0180
0180
0380
0380
0700
0700
0700
0700
0600
0E00
0E00
1C00
1C00
1C00
1C00
3800
3800
3800
3000
3000
3000
6000
6000
6000
E000
C000
C000
C000
ENDCHAR
STARTCHAR zero
ENCODING 48
SWIDTH 528 0
DWIDTH 17 0
BBX 14 26 1 -2
BITMAP
0340
1FE0
3FF8
3FF8
7FFC
FFFC
FFFC
FFFC
FFFC
7FFC
7FFC
7CFC
7CFC
78FC
787C
787C
7C7C
78FC
7CF8
3CF8
3CF0
3FF8
3FF0
1FE0
07E0
0180
ENDCHAR
STARTCHAR one
ENCODING 49
SWIDTH 366 0
DWIDTH 12 0
BBX 10 25 0 -1
BITMAP
01C0
07C0
3FC0
FFC0
FFC0
7FC0
1FC0
1FC0
0FC0
0FC0
0FC0
0FC0
0F80
0F80
0F80
0F80
0F80
0F80
0F80
0780
0780
0780
0780
0580
0040
ENDCHAR
STARTCHAR two
ENCODING 50
SWIDTH 575 0
DWIDTH 18 0
BBX 17 27 1 -3
BITMAP
078000
1FF000
3FF800
7FFC00
7FFC00
7FFE00
7FFE00
7FFE00
7FFE00
7FFE00
7FFE00
7E7C00
7C7C00
7CFC00
01FC00
01F800
01F800
01F000
03F000
07E080
0FFF80
7FFF80
7FFF00
7FFF00
7FDF00
FB1A00
000A00
ENDCHAR
STARTCHAR three
ENCODING 51
SWIDTH 517 0
DWIDTH 17 0
BBX 14 26 1 -2
BITMAP
0300
1FC0
3FE0
7FF0
FFF8
FFF8
FFFC
FFFC
7FFC
7FFC
7FFC
7CFC
7CFC
40F8
01F8
03F8
03F8
03FC
007C
017C
1F78
1F78
0FF8
0FF0
07F0
0600
ENDCHAR
STARTCHAR four
ENCODING 52
SWIDTH 466 0
DWIDTH 15 0
BBX 14 32 1 -8
BITMAP
7FF8
7FE0
3FC0
3F80
3F00
3F80
3F80
3F00
7F00
7E00
7E00
7E00
3E00
3EA0
7FF0
7DF0
7DE0
7CE0
7CE0
7EE4
7FF8
FFF8
FFF8
FFF8
87F8
00E0
00E0
00C0
00C0
00C0
00C0
0020
ENDCHAR
STARTCHAR five
ENCODING 53
SWIDTH 583 0
DWIDTH 19 0
BBX 17 26 1 -2
BITMAP
7FC000
7FFF80
7FFF80
7FFF80
7FFF00
7FFF00
7FFF00
7FFF00
7FFF00
7FFF00
7FFF00
7CFE00
FC0000
7C0000
7DF800
7FF800
3FF800
03F800
007C00
017C00
1F3800
1F7800
0FF800
0FF000
07F000
060000
ENDCHAR
STARTCHAR six
ENCODING 54
SWIDTH 582 0
DWIDTH 19 0
BBX 17 27 1 -3
BITMAP
030000
1FF000
3FFC00
7FFE00
FFFF00
FFFF00
FFFF80
FFFF00
FFFF00
FFFF00
7FFF00
7E7E00
7E7E00
7E3E00
7C3E00
3E8000
3FFC00
3FFE00
3E3E00
3E3E00
3E3E00
1F3E00
1FFE00
1FFE00
0FFE00
05EC00
014800
ENDCHAR
STARTCHAR seven
ENCODING 55
SWIDTH 624 0
DWIDTH 20 0
BBX 19 27 1 -3
BITMAP
00FFE0
FFFFE0
FFFFC0
FFFFC0
FFFFC0
FFFF80
7FFF80
7FFF80
7FFF80
7FFF00
7FFF00
7F9F00
003E00
003E00
003E00
007C00
007C00
007800
00F800
00F000
01F000
01E000
01E000
03E000
03C000
03C000
07C000
ENDCHAR
STARTCHAR eight
ENCODING 56
SWIDTH 459 0
DWIDTH 15 0
BBX 12 27 1 -3
BITMAP
1F80
7FE0
FFF0
FFF0
FFF0
FFF0
FFF0
7FF0
7FF0
7FF0
79F0
78E0
79E0
39E0
3FE0
3FC0
1FC0
3FC0
39E0
39C0
39C0
39C0
3FC0
1FC0
1F80
0400
0400
ENDCHAR
STARTCHAR nine
ENCODING 57
SWIDTH 584 0
DWIDTH 19 0
BBX 16 29 1 -5
BITMAP
00C0
0FF0
1FFC
3FFE
3FFF
7FFF
7FFF
FFFF
FFFF
FFFF
FFFF
FE7F
7E3F
7FBF
7FFF
3FFF
1FFE
043E
003E
3E3C
7E7C
3FF8
3FF8
1FF0
0ED0
0150
0140
0100
0080
ENDCHAR
STARTCHAR colon
ENCODING 58
SWIDTH 386 0
DWIDTH 12 0
BBX 9 26 1 1
BITMAP
FF80
7F80
7F80
3F80
7F80
7F80
7F80
3F80
3F80
3000
0000
0000
0000
0000
0000
0000
FF80
7F80
7F80
7F80
7F80
7F80
7F80
3F80
3F80
7000
ENDCHAR
STARTCHAR semicolon
ENCODING 59
SWIDTH 375 0
DWIDTH 12 0
BBX 9 32 1 -5
BITMAP
7F80
FF80
7F80
7F80
7F80
7F80
7F80
7F80
7F80
6000
0000
0000
0000
0000
0000
0000
7B80
7F80
7F80
7F80
7F80
7F80
7F80
7F80
FF80
4F80
0380
0780
0780
0700
0700
0700
ENDCHAR
STARTCHAR less
ENCODING 60
SWIDTH 459 0
DWIDTH 15 0
BBX 13 18 1 2
BITMAP
0FC8
0FF0
0FF0
1FC0
1FC0
3F80
7F80
FF00
FE00
FE00
7F00
7F00
3F80
1FC0
0FE0
07F0
03F8
0070
ENDCHAR
STARTCHAR equal
ENCODING 61
SWIDTH 485 0
DWIDTH 16 0
BBX 11 10 2 9
BITMAP
FFE0
FFE0
FFE0
0260
0000
0000
FFE0
FFE0
FFE0
3BA0
ENDCHAR
STARTCHAR greater
ENCODING 62
SWIDTH 432 0
DWIDTH 14 0
BBX 12 17 1 3
BITMAP
FE00
FF00
7F00
3F00
1F80
1FC0
0FE0
07E0
07F0
0FE0
07F0
0FE0
1F80
3F80
7F00
FF00
FE00
ENDCHAR
STARTCHAR question
ENCODING 63
SWIDTH 577 0
DWIDTH 18 0
BBX 14 29 2 -4
BITMAP
1FC0
3FE0
7FF0
FFF8
FFFC
FFFC
FFFC
FFFC
FFFC
FDFC
F8FC
7CFC
01F8
01F8
03F0
03F0
03E0
03C0
03C0
0780
0000
0000
1FC0
0FC0
0FC0
0FC0
0FC0
0FC0
0C00
ENDCHAR
STARTCHAR at
ENCODING 64
SWIDTH 930 0
DWIDTH 30 0
BBX 28 34 1 -7
BITMAP
007FC000
00FFE000
03FFF800
07FCFC00
07803E00
0E051E00
1C7FCF00
18FFE780
38FFE7C0
31FFF3C0
71FFE3E0
71FFE3E0
71FFE3E0
E1FFE1F0
E0F9E1F0
E0F1E1F0
E0F1E1F0
60C1E1F0
E03FC1F0
F0FFE1E0
F0F1E0E0
70F1F0E0
70F3F8E0
78FFFFC0
78FFDFC0
387F9F80
3C2B8E00
1E000000
1E000000
0F000000
07C0C000
03FFE000
01FFE000
007F8000
ENDCHAR
STARTCHAR A
ENCODING 65
SWIDTH 494 0
DWIDTH 16 0
BBX 15 30 0 -7
BITMAP
FFFE
3FFC
0FF8
1FF8
1FF0
0FF0
0FF0
1FF0
1FF0
1FF0
0FF0
0FF0
1EF0
1EF0
1EF0
1EF0
0EF0
1FF0
1FF0
1FF0
1FF0
1EE0
0EE0
0CE0
0CE0
0CE0
0A20
0040
0080
0080
ENDCHAR
STARTCHAR B
ENCODING 66
SWIDTH 517 0
DWIDTH 17 0
BBX 14 26 1 -2
BITMAP
03E0
FFF8
7FFC
7FFC
3FFC
3FFC
3FFC
3FFC
3FFC
1FFC
1E7C
1E38
1E78
1E78
1FF8
1FF0
1FF0
1FF0
1E78
1E78
1E70
1E70
1FF0
1FF0
13E0
0100
ENDCHAR
STARTCHAR C
ENCODING 67
SWIDTH 504 0
DWIDTH 16 0
BBX 14 28 1 -4
BITMAP
07C0
1FF0
3FF8
7FFC
7FFC
FFFC
FFFC
FFFC
FFFC
FFFC
FFFC
FCFC
FC7C
7C7C
7C00
7C00
7C00
7C00
3C78
3C78
3EF8
3FF0
3FF0
1FE0
05C0
0580
0580
0180
ENDCHAR
STARTCHAR D
ENCODING 68
SWIDTH 522 0
DWIDTH 17 0
BBX 15 28 1 -5
BITMAP
BFF0
7FF8
FFFC
7FFE
7FFE
3FFE
3FFE
3FFE
3FFE
3FFE
3F3E
3F3C
3E1C
1E3C
1E3C
1F3C
1E38
1E38
1F38
1FF8
1FF8
1FF8
19F0
19E0
09C0
0940
0900
0080
ENDCHAR
STARTCHAR E
ENCODING 69
SWIDTH 570 0
DWIDTH 18 0
BBX 16 26 1 -2
BITMAP
0300
FFFF
7FFE
7FFE
3FFE
3FFE
3FFC
3FFC
3FFC
3FF8
3EF8
3E08
3E00
3EE0
1FF0
1FE0
1FE0
1FE0
1E00
1E00
1FF0
1FF0
1FF0
13F0
1390
0220
ENDCHAR
STARTCHAR F
ENCODING 70
SWIDTH 559 0
DWIDTH 18 0
BBX 17 26 0 -3
BITMAP
FFFF80
3FFF00
1FFF00
1FFE00
0FFE00
0FFE00
0FFE00
0FFE00
0FFE00
0FFE00
0FAE00
078200
07FC00
07FC00
07FC00
07FC00
07DC00
07C000
07C000
07C000
07C000
07C000
07C000
0BC000
094000
010000
ENDCHAR
STARTCHAR G
ENCODING 71
SWIDTH 499 0
DWIDTH 16 0
BBX 14 27 1 -3
BITMAP
0600
1FE0
7FF0
FFF8
7FFC
FFFC
FFFC
FFFC
FFFC
FFFC
FFFC
7CFC
7CFC
7CFC
780C
7D00
7DFC
7DFC
7DFC
3D7C
3C78
3FF8
3FF8
1FF8
0BF0
0AC0
04C0
ENDCHAR
STARTCHAR H
ENCODING 72
SWIDTH 726 0
DWIDTH 23 0
BBX 23 30 0 -6
BITMAP
002540
8FC7FE
7FC7FC
3FC7F8
1FC3F8
1FC7F0
1FC7F0
1FC7F0
1FC7E0
0FC7E0
0FC7E0
0F87E0
0F87C0
0FFFC0
0FFFC0
07FFC0
07FFC0
07C7C0
07CFC0
07CF80
07CF80
07CF80
07CF80
07CF80
068F80
000480
000100
000800
000800
001000
ENDCHAR
STARTCHAR I
ENCODING 73
SWIDTH 401 0
DWIDTH 13 0
BBX 12 26 0 -2
BITMAP
7FC0
FFF0
7FE0
1FE0
1FC0
0FE0
0FC0
0FC0
0FC0
0FC0
0FC0
0FC0
0F80
0FC0
0FC0
0FC0
0F80
0F80
0F80
0F80
0780
0780
0780
0580
0540
0100
ENDCHAR
STARTCHAR J
ENCODING 74
SWIDTH 455 0
DWIDTH 15 0
BBX 15 24 -1 -1
BITMAP
03FE
03FC
01F8
01F8
01F8
01F0
01F8
01F0
01F0
01F0
01F0
01F0
01F0
01F0
09E0
39E0
F9E0
F9E0
79E0
7BE0
7FC0
7FC0
3BC0
0B40
ENDCHAR
STARTCHAR K
ENCODING 75
SWIDTH 580 0
DWIDTH 19 0
BBX 18 26 0 -2
BITMAP
0A9800
FF9FC0
3F9F80
3F9F00
1FBE00
1FBC00
0FB800
0FB800
0FF800
0FF800
07F800
0FF800
0FF800
07F800
07F800
07F800
07F800
07F800
07F800
07BC00
07BC00
039C00
039C00
039C00
029A00
004200
ENDCHAR
STARTCHAR L
ENCODING 76
SWIDTH 416 0
DWIDTH 13 0
BBX 14 26 0 -2
BITMAP
FF70
7FE0
3F80
3F80
3F80
3F80
1F80
1F80
1F80
1F80
1F00
1F80
1F80
1F80
1F80
1F80
0F80
0F00
0F80
0F84
0FFC
0FFC
0FFC
07FC
04D8
04D8
ENDCHAR
STARTCHAR M
ENCODING 77
SWIDTH 740 0
DWIDTH 24 0
BBX 22 25 1 -1
BITMAP
0FCF80
FF8FFC
7F8FF8
7FCFF0
3FDFF0
3FDFE0
3FFFE0
3FFFE0
3FFFE0
1FFFE0
1FFFE0
1FFFE0
1FFFE0
1FFFE0
1FFFE0
1F7BE0
0F7BE0
0F7BE0
0F7BC0
0F7BC0
0F33C0
0F33C0
0F37C0
0AA4C0
0600C0
ENDCHAR
STARTCHAR N
ENCODING 78
SWIDTH 610 0
DWIDTH 20 0
BBX 18 29 1 -5
BITMAP
012000
FF3FC0
FF3F80
7F1F00
3F9E00
3F9E00
3F9E00
3FDE00
3FFE00
3FFE00
3FFE00
3FFE00
3FFE00
1FFC00
1FFC00
1FFC00
1EFC00
1EFC00
0EFC00
0E7C00
0E7C00
0E7C00
0E7C00
0F3C00
0F3C00
0D3800
093800
092000
092000
ENDCHAR
STARTCHAR O
ENCODING 79
SWIDTH 504 0
DWIDTH 16 0
BBX 14 27 1 -3
BITMAP
0380
1FE0
3FF8
7FFC
FFFC
FFFC
FFFC
FFFC
FFFC
FFFC
FFFC
FCFC
7CFC
7CFC
787C
7C7C
7C7C
7C78
3CF8
3CF8
3EF8
3FF0
3FF0
1FE0
04E0
04A0
0080
ENDCHAR
STARTCHAR P
ENCODING 80
SWIDTH 545 0
DWIDTH 17 0
BBX 17 26 0 -2
BITMAP
005000
FFFE00
3FFF00
1FFF00
1FFF80
0FFF80
0FFF00
0FFF00
0FFF00
0FFF00
0F8F00
0FCF00
0FCF00
07CF00
07CF00
07FE00
07FE00
07FE00
07FC00
07C000
07C000
07C000
07C000
03C000
02C000
02C000
ENDCHAR
STARTCHAR Q
ENCODING 81
SWIDTH 520 0
DWIDTH 17 0
BBX 15 28 1 -5
BITMAP
0FE0
1FF0
7FFC
7FFC
7FFE
FFFE
FFFE
FFFE
FFFE
FE7E
FE7E
FE7E
7E3E
7E3E
7E3E
7E7C
3E3C
3E7C
3F7C
1F7C
1FF8
0FFC
07FE
03FE
001C
0008
0008
0008
ENDCHAR
STARTCHAR R
ENCODING 82
SWIDTH 599 0
DWIDTH 19 0
BBX 17 26 1 -2
BITMAP
07C000
7FFC00
FFFF00
7FFF80
3FFF80
3FFF80
1FFF80
1FFF80
1FFF80
1FFF80
1F9F80
1F8F80
1F8F80
0F9F80
0FFF00
0FFF00
07FF00
07FE00
07BE00
079E00
079E00
079E00
079E00
079F00
075F00
014B00
ENDCHAR
STARTCHAR S
ENCODING 83
SWIDTH 504 0
DWIDTH 16 0
BBX 15 27 1 -3
BITMAP
0180
0FE0
3FF8
7FFC
7FFE
7FFC
FFFC
FFFC
FFFC
FFFC
FEFC
FCFC
FC7C
FF00
7FE0
7FF0
1FF8
07F8
00F8
7CF8
FCF8
7FF8
3FF0
3FF0
1FA0
04A0
0080
ENDCHAR
STARTCHAR T
ENCODING 84
SWIDTH 622 0
DWIDTH 20 0
BBX 18 27 1 -4
BITMAP
FFFF00
7FFFC0
7FFF80
3FFF00
3FFF80
3FFF00
3FFF00
3FFF00
3FFF00
3FFF00
3FF300
21F100
01F000
01F000
01F000
01F000
01F000
01F000
01F000
01F000
01F000
01F000
01F000
01F000
01F000
01D000
010000
ENDCHAR
STARTCHAR U
ENCODING 85
SWIDTH 637 0
DWIDTH 20 0
BBX 20 26 0 -2
BITMAP
079000
FF8FC0
3F8FF0
1F9FC0
1F8FC0
1F8FC0
1F8FC0
1F8F80
1F8F80
1F8F80
1F8F00
0F8F00
0F9F00
0F9F00
0F9F00
0F9F00
0F9F00
0F9F00
0F9F00
0F9E00
07FE00
07FE00
07BC00
03A800
032800
000800
ENDCHAR
STARTCHAR V
ENCODING 86
SWIDTH 570 0
DWIDTH 18 0
BBX 20 27 -1 -3
BITMAP
038F10
FF0FE0
1F8FC0
0F8F80
0F9F80
0F9F80
0F9F00
0F9F00
0F9F00
0F9E00
07BE00
07BE00
07BE00
07BE00
07BC00
07BC00
07BC00
07FC00
07F800
03F800
03F800
03F800
03F000
03F000
01F000
01F000
002000
ENDCHAR
STARTCHAR W
ENCODING 87
SWIDTH 777 0
DWIDTH 25 0
BBX 25 25 0 -1
BITMAP
001C6000
0F9C7E00
FF9C7F80
3FBE7E00
1FBEFC00
0FBEF800
0FBEF800
07BFF000
07FFF000
07FFE000
07FFE000
03FFE000
03FFC000
01FFE000
01FFC000
01FFC000
01F7C000
00F7C000
00F7C000
00F78000
00F78000
00770000
00770000
00770000
00100000
ENDCHAR
STARTCHAR X
ENCODING 88
SWIDTH 587 0
DWIDTH 19 0
BBX 19 26 0 -2
BITMAP
012000
FF9F80
3F9FE0
1F9F80
0FBE00
07FC00
07FC00
03FC00
03F800
03F800
03F800
01F800
03F800
01F000
01F000
01F000
01F000
01F000
01F000
01F000
03B800
03B800
03B800
03BC00
07AC00
040400
ENDCHAR
STARTCHAR Y
ENCODING 89
SWIDTH 688 0
DWIDTH 22 0
BBX 23 25 0 -1
BITMAP
0B8200
FFC3F0
3FC7FE
0FE7F8
07E7E0
03FFC0
01FFC0
00FF80
00FF00
007F00
007F00
007F00
003F00
003F00
003F00
001F00
001E00
001E00
001E00
001E00
001E00
001E00
001E00
001E00
000E00
ENDCHAR
STARTCHAR Z
ENCODING 90
SWIDTH 695 0
DWIDTH 22 0
BBX 21 25 1 -1
BITMAP
077800
7FFFC0
FFFFF8
7FFFF0
7FFFE0
3FFFE0
3FFFC0
1FFFC0
1FFF80
1FFF80
1FFF00
1C7F00
10FC00
00F800
01F800
01F000
03E000
01E000
03C000
03C000
07FC00
07FC00
0FFC00
07F800
049800
ENDCHAR
STARTCHAR bracketleft
ENCODING 91
SWIDTH 410 0
DWIDTH 13 0
BBX 11 29 2 -1
BITMAP
A000
FFC0
FFC0
FFC0
FFC0
FFC0
FFC0
7800
F800
F800
F800
F800
F800
F800
F800
F800
F800
F800
F800
F800
F800
F800
F800
F800
FD60
7FE0
7FC0
7B80
4280
ENDCHAR
STARTCHAR backslash
ENCODING 92
SWIDTH 292 0
DWIDTH 9 0
BBX 10 28 0 -3
BITMAP
E000
6000
6000
7000
7000
3000
7000
3000
3800
3800
1800
1C00
1C00
0E00
0E00
0E00
0E00
0600
0700
0600
0300
0300
0300
0380
0180
0180
01C0
0140
ENDCHAR
STARTCHAR bracketright
ENCODING 93
SWIDTH 407 0
DWIDTH 13 0
BBX 11 29 0 -1
BITMAP
0620
7FE0
7FE0
7FE0
7FE0
7FE0
7FE0
03C0
03E0
03E0
03E0
03E0
03E0
03E0
03E0
03E0
03E0
03E0
03E0
03E0
03E0
03E0
03E0
03E0
DBE0
FFE0
7FE0
7FE0
4060
ENDCHAR
STARTCHAR asciicircum
ENCODING 94
SWIDTH 523 0
DWIDTH 17 0
BBX 15 11 1 23
BITMAP
0FC0
0FE0
1FE0
1FF0
3FF0
3EF8
3CF8
7C7C
783E
F03C
7018
ENDCHAR
STARTCHAR underscore
ENCODING 95
SWIDTH 452 0
DWIDTH 14 0
BBX 11 5 2 -1
BITMAP
FFE0
FFE0
FFE0
FFE0
FFE0
ENDCHAR
STARTCHAR grave
ENCODING 96
SWIDTH 444 0
DWIDTH 14 0
BBX 10 8 2 24
BITMAP
3000
3800
3C00
7F00
FF80
3FC0
03C0
0040
ENDCHAR
STARTCHAR a
ENCODING 97
SWIDTH 479 0
DWIDTH 15 0
BBX 16 27 0 -3
BITMAP
0FFF
FFFC
3FFC
1FF8
1FF8
1FF8
1FF8
0FF8
0FF8
1FF8
1FF8
0FF8
0FF8
0FF8
1FF8
1E78
1E78
1E78
1E78
1FF8
1FF8
1FF8
1EF0
1E70
1E70
1C70
1C00
ENDCHAR
STARTCHAR b
ENCODING 98
SWIDTH 610 0
DWIDTH 20 0
BBX 18 25 1 -2
BITMAP
3FFF00
FFFF80
7FFF80
3FFF80
3FFFC0
1FFFC0
1FFFC0
1FFFC0
1FFFC0
1FFF80
0F8F80
0F8F80
0F9F00
0FCF00
0FFE00
0FFC00
0FFE00
0FBF00
0F9F00
0F9F00
079E00
07DE00
07FE00
07FE00
049C00
ENDCHAR
STARTCHAR c
ENCODING 99
SWIDTH 534 0
DWIDTH 17 0
BBX 16 26 1 -2
BITMAP
03E0
1FF8
3FFC
7FFC
7FFF
FFFE
FFFE
FFFE
FFFE
FFFE
FFFE
FF7E
7E3E
7E3E
7E5E
7E00
7E00
3E00
3E78
3E7C
3E78
3FF8
1FF8
1FF0
0B60
0240
ENDCHAR
STARTCHAR d
ENCODING 100
SWIDTH 573 0
DWIDTH 18 0
BBX 18 28 0 -4
BITMAP
00E000
FFFC00
7FFE00
3FFF00
3FFF80
3FFFC0
1FFFC0
1FFFC0
1FFFC0
0FFFC0
0FFFC0
0FFFC0
0FCF80
07CF80
07C780
07C700
078700
07CF00
07CF00
078E00
03CE00
03EE00
03FE00
03FE00
03FC00
023C00
023800
020000
ENDCHAR
STARTCHAR e
ENCODING 101
SWIDTH 632 0
DWIDTH 20 0
BBX 19 26 0 -2
BITMAP
002000
3FFFE0
FFFFE0
3FFFC0
3FFFC0
1FFF80
1FFF80
1FFF80
1FFF80
0FFF00
0FFF00
0FC300
0FC000
0FC000
0FFC00
07FC00
07FC00
07FC00
07FC00
07C000
07C000
07FE00
03FE00
03FE00
027E00
020200
ENDCHAR
STARTCHAR f
ENCODING 102
SWIDTH 559 0
DWIDTH 18 0
BBX 17 26 0 -3
BITMAP
FFFF80
3FFF00
1FFF00
1FFE00
0FFE00
0FFE00
0FFE00
0FFE00
0FFE00
0FFE00
0F8E00
0F8200
0FF800
0FF800
0FF800
0FF800
07FC00
078000
078000
078000
0F8000
0FC000
0FC000
09C000
094000
014000
ENDCHAR
STARTCHAR g
ENCODING 103
SWIDTH 546 0
DWIDTH 18 0
BBX 16 27 1 -3
BITMAP
0200
1FF0
3FFC
7FFC
FFFE
FFFF
FFFF
FFFF
FFFF
FFFF
FFFF
7EFE
7C7E
7C7E
7C3E
7C00
3CF0
3EFE
3EFE
3EFE
3E3E
1F3C
1FFC
1FFC
0FFC
05F8
0550
ENDCHAR
STARTCHAR h
ENCODING 104
SWIDTH 730 0
DWIDTH 23 0
BBX 23 26 0 -2
BITMAP
01E7D0
FFC7FE
3FC7FC
1FC3F8
1FC3F8
1FC7F0
1FC7F0
1FC7F0
1FC7F0
0FC7F0
0FC7E0
0FC7E0
0FC7C0
0FFFE0
07FFC0
07FFC0
07FFC0
07C7C0
07CFC0
07CF80
07CF80
07CF80
07CF80
07CF80
060F80
000480
ENDCHAR
STARTCHAR i
ENCODING 105
SWIDTH 412 0
DWIDTH 13 0
BBX 13 25 0 -1
BITMAP
0D88
FFF0
3FF0
1FE0
1FE0
0FE0
0FC0
0FC0
0FC0
0FC0
0FC0
0F80
0F80
0F80
0FC0
0FC0
0F80
0780
0780
0780
0780
0780
0780
0580
0180
ENDCHAR
STARTCHAR j
ENCODING 106
SWIDTH 458 0
DWIDTH 15 0
BBX 15 25 -1 -1
BITMAP
0780
07FE
03FC
03FC
03FC
01F8
01F8
01F8
01F8
01F8
01F8
01F8
01F8
01F8
01F0
01F0
39F0
F9F0
78F0
7DF0
7DF0
7FF0
3FE0
1FE0
05A0
ENDCHAR
STARTCHAR k
ENCODING 107
SWIDTH 636 0
DWIDTH 20 0
BBX 20 25 0 -1
BITMAP
014B80
BFCFF0
7FCFC0
1FCF80
1FDF00
1FDE00
0FDE00
0FDE00
07DC00
07DC00
07DC00
07F800
07F800
07F800
07F800
07F800
03F800
03FC00
03DC00
03DC00
03DE00
03CE00
03CF00
03CF00
014D80
ENDCHAR
STARTCHAR l
ENCODING 108
SWIDTH 438 0
DWIDTH 14 0
BBX 15 26 0 -2
BITMAP
07F8
FFF0
3FE0
1FC0
1F80
1FC0
1FC0
1FC0
1F80
1FC0
0FC0
0FC0
0FC0
0F80
0F80
0F80
0780
0FC0
0780
07E0
07FE
07FC
07FC
07BC
063C
0208
ENDCHAR
STARTCHAR m
ENCODING 109
SWIDTH 770 0
DWIDTH 25 0
BBX 24 26 0 -2
BITMAP
0077F0
07E3FF
FFE7FC
3FE7F8
1FE7F8
1FF7F8
1FFFF8
1FFFF0
1FFFF0
1FFFF0
1FFFF0
0FFFF0
1FFFE0
1FFFE0
0FFFE0
0FFFE0
0FBFE0
0FBBE0
0FBBC0
07BBC0
07BBC0
07B780
07B780
049580
042080
040000
ENDCHAR
STARTCHAR n
ENCODING 110
SWIDTH 664 0
DWIDTH 21 0
BBX 21 27 0 -3
BITMAP
87C800
7FCFF8
3FC7F0
3FC7E0
1FE7E0
3FE7C0
1FE7C0
1FF7C0
1FFFC0
1FFFC0
1FFFC0
1FFF80
1FFF80
1FFF80
1FFF80
0FFF80
0F7F80
0F7F00
0F7F00
0F3F00
0F3F00
0F3F00
073E00
071E00
071E00
069E00
001400
ENDCHAR
STARTCHAR o
ENCODING 111
SWIDTH 545 0
DWIDTH 17 0
BBX 16 26 1 -2
BITMAP
01A0
1FF0
3FFC
7FFC
7FFE
FFFF
FFFF
FFFF
FFFF
FFFF
FEFF
7E7F
7C7F
7C7E
7C7E
7C7E
7C7E
7C7C
3C7C
3E7C
3EF8
3FFC
1FF8
17F0
02F0
00D0
ENDCHAR
STARTCHAR p
ENCODING 112
SWIDTH 557 0
DWIDTH 18 0
BBX 16 25 1 -1
BITMAP
02E0
FFFC
7FFE
3FFF
3FFF
3FFF
1FFF
1FFF
1FFF
1FFF
1F5E
1F9E
1F1E
1F1E
1F1E
1FFE
1FFC
0FFC
0FF8
0F80
0F80
0F00
0F80
0F80
0F80
ENDCHAR
STARTCHAR q
ENCODING 113
SWIDTH 562 0
DWIDTH 18 0
BBX 17 29 1 -5
BITMAP
01E000
0FF800
3FFC00
7FFE00
7FFF00
7FFF00
FFFF00
FFFF00
FFFF00
FFFF00
FF3F00
FE5F00
7E3F00
7E1F00
7E1F00
7E1F00
7E1F00
3E5F00
3F3F00
3F7E00
1FFE00
0FFE00
0FFE00
03FF80
03FF00
000E00
000600
000400
000400
ENDCHAR
STARTCHAR r
ENCODING 114
SWIDTH 616 0
DWIDTH 20 0
BBX 18 27 1 -3
BITMAP
029000
FFFE00
FFFF80
7FFFC0
3FFFC0
1FFFC0
1FFFC0
1FFFC0
1FFFC0
1FFF80
1FDF80
0F8F80
0F8F80
0F8F80
1FFF80
0FFF00
0FFF00
0FFF00
0FFC00
0FBE00
0FBE00
0FBE00
0F9E00
0FBE00
0F9E00
081600
000200
ENDCHAR
STARTCHAR s
ENCODING 115
SWIDTH 481 0
DWIDTH 15 0
BBX 14 26 1 -2
BITMAP
0300
1FE0
3FF0
7FF8
7FFC
FFFC
FFF8
FFF8
FFF8
FFF8
FFF8
FCF8
FCF8
FE08
7FC0
7FE0
3FE0
1FF0
01F0
04F0
7CF0
7FF0
3FE0
3FC0
1FC0
0800
ENDCHAR
STARTCHAR t
ENCODING 116
SWIDTH 683 0
DWIDTH 22 0
BBX 20 29 1 -5
BITMAP
03FE00
7FFFF0
FFFFE0
7FFFE0
7FFFC0
3FFFC0
3FFFC0
3FFFC0
1FFFC0
1FFFC0
1FFF80
1CF980
10F800
00F800
00F800
00F800
00F800
00F800
00F800
00F800
00F800
007800
007800
007800
007800
007800
007800
001800
000800
ENDCHAR
STARTCHAR u
ENCODING 117
SWIDTH 708 0
DWIDTH 23 0
BBX 23 24 0 0
BITMAP
03C400
FFC3E0
3FC3FE
1FC7FC
1FC7F8
1FC7F8
1FC3F0
1FC3F0
0FE7E0
0FE7E0
0FE7E0
0FE7E0
0FC7E0
0FC7E0
07C7C0
0FC7C0
07E7C0
07E7C0
07EFC0
03EFC0
03FF80
03FFC0
03FF80
00EB00
ENDCHAR
STARTCHAR v
ENCODING 118
SWIDTH 644 0
DWIDTH 21 0
BBX 21 26 0 -2
BITMAP
018400
FF8FF8
1F8FE0
1F8FC0
1F8FC0
0F8F80
0FCF80
0FCF80
0FCF00
07DF00
07DF00
07DF00
07DF00
07DF00
03DE00
03DE00
03DE00
01FE00
01FE00
01FC00
00FC00
00FC00
00FC00
007800
007800
007000
ENDCHAR
STARTCHAR w
ENCODING 119
SWIDTH 704 0
DWIDTH 23 0
BBX 23 24 0 0
BITMAP
003900
3F38F0
FF38FE
3F39F8
1F3DF0
1F7DF0
0FFDE0
0FFDE0
0FFFE0
07FFC0
07FFC0
03FFC0
03FFC0
03FFC0
01FF80
01FF80
01FF80
01F780
00F780
00F780
00F780
00E780
007780
004700
ENDCHAR
STARTCHAR x
ENCODING 120
SWIDTH 599 0
DWIDTH 19 0
BBX 19 26 0 -2
BITMAP
051000
FFDF80
3F9FE0
0F9F80
0FBE00
07FC00
07FC00
03FC00
03F800
01F800
01F800
03F800
01F800
01F000
01F000
00F000
01F000
01F000
01F000
01F800
01F800
03B800
03BC00
03BC00
07AC00
020200
ENDCHAR
STARTCHAR y
ENCODING 121
SWIDTH 604 0
DWIDTH 19 0
BBX 19 26 0 -2
BITMAP
0A0800
FF0F80
3F9FE0
0F9F80
079F00
07FF00
03FE00
01FC00
01FC00
01F800
01F800
01F800
00F800
00F800
00F800
00F800
00F800
00F800
00F800
00F800
00F800
00F800
00F000
00F000
00F000
005000
ENDCHAR
STARTCHAR z
ENCODING 122
SWIDTH 622 0
DWIDTH 20 0
BBX 18 26 1 -2
BITMAP
0FF800
FFFF80
FFFFC0
7FFF80
7FFF80
3FFF00
3FFF00
1FFF00
1FFF00
1FFE00
1FFE00
1CFC00
08F800
00F000
01F000
01E000
01E000
01C000
03C000
03C000
03FC00
07FC00
07F800
07F800
06F800
000800
ENDCHAR
STARTCHAR braceleft
ENCODING 123
SWIDTH 372 0
DWIDTH 12 0
BBX 10 32 1 -4
BITMAP
0040
00C0
03C0
07C0
0FC0
1FC0
1FC0
3FC0
7FC0
7F80
7F80
7F80
7E00
FC00
FC00
FC00
FC00
FC00
FC00
FC00
FC00
FC00
7C00
7E00
7E00
3F00
3F80
1F80
1F80
0F80
0780
0100
ENDCHAR
STARTCHAR bar
ENCODING 124
SWIDTH 208 0
DWIDTH 7 0
BBX 3 29 2 -3
BITMAP
A0
C0
E0
E0
E0
C0
E0
E0
E0
C0
C0
C0
C0
C0
C0
C0
C0
E0
C0
C0
E0
C0
C0
C0
C0
C0
C0
C0
C0
ENDCHAR
STARTCHAR braceright
ENCODING 125
SWIDTH 338 0
DWIDTH 11 0
BBX 8 31 1 -4
BITMAP
80
F8
FC
FE
FF
FF
FF
FF
FF
FF
7F
BF
1F
1F
0F
0F
0F
0F
0F
0F
1F
1F
1E
1E
1E
1E
3C
FC
F8
F0
E0
ENDCHAR
STARTCHAR asciitilde
ENCODING 126
SWIDTH 535 0
DWIDTH 17 0
BBX 15 7 1 18
BITMAP
1030
30F8
F9FC
FFFE
7FFE
3FFC
1E10
ENDCHAR
STARTCHAR exclamdown
ENCODING 161
SWIDTH 347 0
DWIDTH 11 0
BBX 9 39 1 1
BITMAP
6000
7F80
7F80
7F80
7F80
7F80
7F80
7F80
7F80
FF80
0200
0000
0000
0200
1C00
1E00
1E00
1E00
1E00
1E00
1E00
3E00
3E00
3F00
3E00
3E00
3E00
7F00
7F00
7F00
7F00
7F00
3F00
7F00
FF00
FF80
FF80
FF80
1000
ENDCHAR
STARTCHAR cent
ENCODING 162
SWIDTH 552 0
DWIDTH 18 0
BBX 15 45 1 -12
BITMAP
0180
0180
0180
0180
0180
0180
0180
0180
0180
03E0
0FF8
3FFC
7FFE
7FFE
FFFE
FFFE
FFFE
FFFE
FFFE
FFFE
7F7E
7E3E
7E3E
7E46
7E00
7E00
3E00
3E38
3E78
3E78
1FF8
1FF8
1FF0
0FE0
03C0
0180
0180
0180
0180
0180
0180
0180
0180
0180
0180
ENDCHAR
STARTCHAR sterling
ENCODING 163
SWIDTH 589 0
DWIDTH 19 0
BBX 17 26 1 -2
BITMAP
010000
1FF000
1FFC00
7FFE00
7FFF00
7FFF00
FFFF80
FFFF80
7FFF80
7FFF80
7FFF00
7E7F00
7E3F00
7E3E00
7C3E00
FF8100
FF8000
7F8000
1F0000
1FC600
1FFC00
3FFC00
3FFC00
3EF800
22B800
06B000
ENDCHAR
STARTCHAR yen
ENCODING 165
SWIDTH 692 0
DWIDTH 22 0
BBX 23 26 -1 2
BITMAP
800200
7FC3FE
1FC3FC
0FE3F8
03E7F0
03F7E0
01FFC0
00FFC0
00FF80
00FF80
007FE0
1FFFFC
1FFFF8
003F00
003F00
1FFFFC
1FFFFC
1FFFFC
001F00
001F00
001F00
001F00
001F00
001F00
000F00
000800
ENDCHAR
STARTCHAR brokenbar
ENCODING 166
SWIDTH 201 0
DWIDTH 6 0
BBX 3 29 2 -3
BITMAP
C0
C0
C0
C0
E0
E0
C0
C0
C0
C0
C0
00
00
00
00
00
00
00
C0
C0
C0
C0
C0
C0
C0
C0
C0
C0
C0
ENDCHAR
STARTCHAR section
ENCODING 167
SWIDTH 477 0
DWIDTH 15 0
BBX 14 30 1 -6
BITMAP
03C0
0FF0
1FF8
3FFC
3FF8
7FF8
7FF8
3FF8
3FF0
3EF0
3EF0
3F00
3FE0
3FE0
7FE0
F9F0
F8F0
F8F0
F9E0
FDE0
FFC0
7FC0
3FC0
0FC0
0BC0
F9C0
7FC0
3F80
3F80
1D00
ENDCHAR
STARTCHAR dieresis
ENCODING 168
SWIDTH 633 0
DWIDTH 20 0
BBX 16 7 2 26
BITMAP
FC7F
FC7F
FC7F
FC7E
FC7F
FC7F
FC7F
ENDCHAR
STARTCHAR copyright
ENCODING 169
SWIDTH 783 0
DWIDTH 25 0
BBX 23 27 1 -2
BITMAP
003800
01FF00
07FFC0
0E00E0
1C7E30
38FE18
31FF08
71FF8C
63FF84
E3FF84
E3FF86
C3FF86
C3FF86
C1E786
E1E786
E1E006
E1E006
E1E004
61E70C
61E70C
70EF18
30FE18
38FC30
1C3C70
0F01E0
07FFC0
01FF00
ENDCHAR
STARTCHAR guillemotleft
ENCODING 171
SWIDTH 759 0
DWIDTH 24 0
BBX 23 18 1 2
BITMAP
041200
07E1FC
0FC3F8
0FC7F0
1F87E0
3F8FE0
7F1FC0
7E1FC0
FE1F80
FC1F80
7E1F80
7F0FC0
3F0FC0
1F87E0
0FC3F0
07C1F8
07E0FC
03F0BE
ENDCHAR
STARTCHAR uni00AD
ENCODING 173
SWIDTH 446 0
DWIDTH 14 0
BBX 11 4 2 9
BITMAP
FFE0
FFE0
FFC0
3F40
ENDCHAR
STARTCHAR registered
ENCODING 174
SWIDTH 780 0
DWIDTH 25 0
BBX 23 26 1 -2
BITMAP
01FE00
07C180
0F0040
1CFC20
3FFE10
33FF98
73FF88
61FF8C
E1FF84
E1FF86
C1EF86
C1E786
41E70E
41FF06
40FF06
40FE04
60EE04
607704
707784
307388
387398
1E2BB0
0F0070
07E3E0
03FF80
00FF00
ENDCHAR
STARTCHAR macron
ENCODING 175
SWIDTH 446 0
DWIDTH 14 0
BBX 11 4 2 9
BITMAP
FFE0
FFE0
FFC0
3F40
ENDCHAR
STARTCHAR acute
ENCODING 180
SWIDTH 439 0
DWIDTH 14 0
BBX 10 8 2 24
BITMAP
0300
0700
0F00
1F80
7FC0
FF00
F000
8000
ENDCHAR
STARTCHAR mu
ENCODING 181
SWIDTH 679 0
DWIDTH 22 0
BBX 23 25 -1 -1
BITMAP
03E000
FFE3F0
3FE3FE
1FC3FC
1FE7F8
1FC3F8
0FE3F8
0FE3F0
0FE3F0
0FE3F0
0FE3E0
07E3E0
07E3E0
07E7E0
07E7E0
07E7E0
07E7E0
07E7C0
03E7C0
03E7C0
03FFC0
03FF80
01FFC0
00AB80
000200
ENDCHAR
STARTCHAR paragraph
ENCODING 182
SWIDTH 591 0
DWIDTH 19 0
BBX 18 26 1 -2
BITMAP
072000
3FFFC0
7FFF80
FFFF00
FFFE00
FFC600
FFCE00
FFCE00
FFCE00
7FCE00
7FCE00
7FCE00
7FCE00
3FCE00
1FCE00
00CC00
00CC00
00CC00
00CC00
00CC00
00CC00
00CC00
00CC00
00CC00
00CC00
000C00
ENDCHAR
STARTCHAR periodcentered
ENCODING 183
SWIDTH 388 0
DWIDTH 12 0
BBX 10 10 1 7
BITMAP
FF80
7F80
7F80
7F80
7FC0
7F80
3F80
3F80
3F80
3800
ENDCHAR
STARTCHAR cedilla
ENCODING 184
SWIDTH 270 0
DWIDTH 9 0
BBX 5 11 2 -11
BITMAP
70
E0
E0
C0
F8
F8
18
18
78
F8
98
ENDCHAR
STARTCHAR guillemotright
ENCODING 187
SWIDTH 767 0
DWIDTH 25 0
BBX 23 18 1 2
BITMAP
FE3000
FF1F80
7F0FC0
3F07E0
1F87E0
1FC3F8
0FC1F0
07E1FC
07F0FC
0FE0FE
0FE1FC
0FC1FC
1F83F8
3F83F8
7F07F0
FF07E0
FE0FC0
001FC0
ENDCHAR
STARTCHAR Agrave
ENCODING 192
SWIDTH 494 0
DWIDTH 16 0
BBX 16 40 -1 -7
BITMAP
3000
3800
3C00
7E00
FF80
3FC0
03C0
0040
0000
0000
7FFF
1FFE
07FC
0FFC
0FF8
07F8
07F8
0FF8
0FF8
0FF8
07F8
07F8
0F78
0F78
0F78
0F78
0778
0FF8
0FF8
0FF8
0FF8
0F70
0770
0670
0670
0670
0510
0020
0040
0040
ENDCHAR
STARTCHAR Aacute
ENCODING 193
SWIDTH 494 0
DWIDTH 16 0
BBX 19 40 0 -7
BITMAP
000300
000780
000F80
001FC0
003FE0
00FF00
00F800
004000
000000
000000
FFFE00
3FFC00
0FF800
1FF800
1FF000
0FF000
0FF000
1FF000
1FF000
1FF000
0FF000
0FF000
1EF000
1EF000
1EF000
1EF000
0EF000
1FF000
1FF000
1FF000
1FF000
1EE000
0EE000
0CE000
0CE000
0CE000
0A2000
004000
008000
008000
ENDCHAR
STARTCHAR Acircumflex
ENCODING 194
SWIDTH 494 0
DWIDTH 16 0
BBX 15 43 0 -7
BITMAP
0FE0
0FE0
1FF0
1FF0
1FF8
3EF8
3C7C
783C
701E
600C
0000
0000
0000
FFFE
3FFC
0FF8
1FF8
1FF0
0FF0
0FF0
1FF0
1FF0
1FF0
0FF0
0FF0
1EF0
1EF0
1EF0
1EF0
0EF0
1FF0
1FF0
1FF0
1FF0
1EE0
0EE0
0CE0
0CE0
0CE0
0A20
0040
0080
0080
ENDCHAR
STARTCHAR Atilde
ENCODING 195
SWIDTH 494 0
DWIDTH 16 0
BBX 15 40 0 -7
BITMAP
0020
3878
79FC
FFFE
7FFE
3FFC
1F18
0400
0000
0000
FFFE
3FFC
0FF8
1FF8
1FF0
0FF0
0FF0
1FF0
1FF0
1FF0
0FF0
0FF0
1EF0
1EF0
1EF0
1EF0
0EF0
1FF0
1FF0
1FF0
1FF0
1EE0
0EE0
0CE0
0CE0
0CE0
0A20
0040
0080
0080
ENDCHAR
STARTCHAR Adieresis
ENCODING 196
SWIDTH 494 0
DWIDTH 16 0
BBX 16 40 0 -7
BITMAP
FC7F
FC7F
FC7F
FE7E
FC7F
FC7F
FC7F
0000
0000
0000
FFFE
3FFC
0FF8
1FF8
1FF0
0FF0
0FF0
1FF0
1FF0
1FF0
0FF0
0FF0
1EF0
1EF0
1EF0
1EF0
0EF0
1FF0
1FF0
1FF0
1FF0
1EE0
0EE0
0CE0
0CE0
0CE0
0A20
0040
0080
0080
ENDCHAR
STARTCHAR Aring
ENCODING 197
SWIDTH 494 0
DWIDTH 16 0
BBX 15 40 0 -7
BITMAP
07E0
0FF0
0FF0
0C30
0C30
0E30
0FE0
07E0
0180
0000
FFFE
3FFC
0FF8
1FF8
1FF0
0FF0
0FF0
1FF0
1FF0
1FF0
0FF0
0FF0
1EF0
1EF0
1EF0
1EF0
0EF0
1FF0
1FF0
1FF0
1FF0
1EE0
0EE0
0CE0
0CE0
0CE0
0A20
0040
0080
0080
ENDCHAR
STARTCHAR AE
ENCODING 198
SWIDTH 733 0
DWIDTH 23 0
BBX 23 31 0 -7
BITMAP
000C00
FFFFFE
3FFFFC
0FFFF8
1FFFF8
1FFFF8
1FFFF0
1FFFF0
1FFFF0
1FFFF0
0FFFF0
0FFC30
1FFC00
0EFF80
1EFFC0
1EFFC0
1EFFC0
1EFFC0
1FFC00
1FFC00
1FFFE0
1FFFC0
1EFFC0
0EE7C0
0CE640
0CE440
0CA440
0C4440
004880
008000
008000
ENDCHAR
STARTCHAR Ccedilla
ENCODING 199
SWIDTH 504 0
DWIDTH 16 0
BBX 14 38 1 -14
BITMAP
07C0
1FF0
3FF8
7FFC
7FFC
FFFC
FFFC
FFFC
FFFC
FFFC
FFFC
FCFC
FC7C
7C7C
7C00
7C00
7C00
7C00
3C78
3C78
3EF8
3FF0
3FF0
1FE0
05C0
0580
0580
0170
0070
0060
00E0
00FC
00FC
001C
001C
007C
00FC
009C
ENDCHAR
STARTCHAR Egrave
ENCODING 200
SWIDTH 570 0
DWIDTH 18 0
BBX 17 35 0 -2
BITMAP
100000
380000
3E0000
7F0000
FF8000
1FC000
03C000
004000
000000
018000
7FFF80
3FFF00
3FFF00
1FFF00
1FFF00
1FFE00
1FFE00
1FFE00
1FFC00
1F7C00
1F0400
1F0000
1F7000
0FF800
0FF000
0FF000
0FF000
0F0000
0F0000
0FF800
0FF800
0FF800
09F800
09C800
011000
ENDCHAR
STARTCHAR Eacute
ENCODING 201
SWIDTH 570 0
DWIDTH 18 0
BBX 19 35 1 -2
BITMAP
000100
000380
000F80
001FC0
003FE0
007F00
007800
004000
000000
030000
FFFF00
7FFE00
7FFE00
3FFE00
3FFE00
3FFC00
3FFC00
3FFC00
3FF800
3EF800
3E0800
3E0000
3EE000
1FF000
1FE000
1FE000
1FE000
1E0000
1E0000
1FF000
1FF000
1FF000
13F000
139000
022000
ENDCHAR
STARTCHAR Ecircumflex
ENCODING 202
SWIDTH 570 0
DWIDTH 18 0
BBX 16 38 1 -2
BITMAP
07E0
0FF0
0FF0
1FF8
1FF8
3E7C
3C3C
383E
701E
600C
0000
0000
0300
FFFF
7FFE
7FFE
3FFE
3FFE
3FFC
3FFC
3FFC
3FF8
3EF8
3E08
3E00
3EE0
1FF0
1FE0
1FE0
1FE0
1E00
1E00
1FF0
1FF0
1FF0
13F0
1390
0220
ENDCHAR
STARTCHAR Edieresis
ENCODING 203
SWIDTH 570 0
DWIDTH 18 0
BBX 16 35 1 -2
BITMAP
7E7F
7E3F
7E3F
7E3F
FE3F
7E3F
7E3F
0000
0000
0300
FFFF
7FFE
7FFE
3FFE
3FFE
3FFC
3FFC
3FFC
3FF8
3EF8
3E08
3E00
3EE0
1FF0
1FE0
1FE0
1FE0
1E00
1E00
1FF0
1FF0
1FF0
13F0
1390
0220
ENDCHAR
STARTCHAR Igrave
ENCODING 204
SWIDTH 401 0
DWIDTH 13 0
BBX 15 35 -3 -2
BITMAP
1000
3800
3E00
7F00
FF80
1FC0
03E0
0040
0000
0FF8
1FFE
0FFC
03FC
03F8
01FC
01F8
01F8
01F8
01F8
01F8
01F8
01F0
01F8
01F8
01F8
01F0
01F0
01F0
01F0
00F0
00F0
00F0
00B0
00A8
0020
ENDCHAR
STARTCHAR Iacute
ENCODING 205
SWIDTH 401 0
DWIDTH 13 0
BBX 17 35 0 -2
BITMAP
000600
000E00
001E00
007F00
00FF80
01FC00
01E000
010000
000000
7FC000
FFF000
7FE000
1FE000
1FC000
0FE000
0FC000
0FC000
0FC000
0FC000
0FC000
0FC000
0F8000
0FC000
0FC000
0FC000
0F8000
0F8000
0F8000
0F8000
078000
078000
078000
058000
054000
010000
ENDCHAR
STARTCHAR Icircumflex
ENCODING 206
SWIDTH 401 0
DWIDTH 13 0
BBX 14 38 -1 -2
BITMAP
0FC0
1FE0
1FE0
3FF0
3FF0
3CF8
7878
707C
E03C
E018
0000
0000
3FE0
7FF8
3FF0
0FF0
0FE0
07F0
07E0
07E0
07E0
07E0
07E0
07E0
07C0
07E0
07E0
07E0
07C0
07C0
07C0
07C0
03C0
03C0
03C0
02C0
02A0
0080
ENDCHAR
STARTCHAR Idieresis
ENCODING 207
SWIDTH 401 0
DWIDTH 13 0
BBX 15 35 -1 -2
BITMAP
FCFE
FC7E
FC7E
FC7E
FC7E
FC7E
FC7E
0000
0000
3FE0
7FF8
3FF0
0FF0
0FE0
07F0
07E0
07E0
07E0
07E0
07E0
07E0
07C0
07E0
07E0
07E0
07C0
07C0
07C0
07C0
03C0
03C0
03C0
02C0
02A0
0080
ENDCHAR
STARTCHAR Eth
ENCODING 208
SWIDTH 530 0
DWIDTH 17 0
BBX 17 29 1 -5
BITMAP
003000
5FF800
3FFC00
7FFF00
3FFF00
1FFF00
1FFF00
1FFF80
1FFF80
1FFF00
1FFF00
0F9F00
0F8F00
0F8F00
FFEE00
FFCE00
0F8E00
0F9E00
0F9C00
079C00
07FC00
07FC00
07FC00
067800
047800
046000
046000
044000
004000
ENDCHAR
STARTCHAR Ntilde
ENCODING 209
SWIDTH 610 0
DWIDTH 20 0
BBX 18 38 1 -5
BITMAP
001000
183C00
3CFC00
7FFE00
3FFF00
1FFE00
1F0C00
040000
000000
012000
FF3FC0
FF3F80
7F1F00
3F9E00
3F9E00
3F9E00
3FDE00
3FFE00
3FFE00
3FFE00
3FFE00
3FFE00
1FFC00
1FFC00
1FFC00
1EFC00
1EFC00
0EFC00
0E7C00
0E7C00
0E7C00
0E7C00
0F3C00
0F3C00
0D3800
093800
092000
092000
ENDCHAR
STARTCHAR Ograve
ENCODING 210
SWIDTH 504 0
DWIDTH 16 0
BBX 17 36 -2 -3
BITMAP
180000
1C0000
1E0000
3F0000
FFC000
1FE000
01E000
002000
000000
007000
03FC00
07FF00
0FFF80
1FFF80
1FFF80
1FFF80
1FFF80
1FFF80
1FFF80
1FFF80
1F9F80
0F9F80
0F9F80
0F0F80
0F8F80
0F8F80
0F8F00
079F00
079F00
07DF00
07FE00
07FE00
03FC00
009C00
009400
001000
ENDCHAR
STARTCHAR Oacute
ENCODING 211
SWIDTH 504 0
DWIDTH 16 0
BBX 18 36 1 -3
BITMAP
000600
000F00
001F00
003F80
007FC0
01FE00
01F000
010000
000000
038000
1FE000
3FF800
7FFC00
FFFC00
FFFC00
FFFC00
FFFC00
FFFC00
FFFC00
FFFC00
FCFC00
7CFC00
7CFC00
787C00
7C7C00
7C7C00
7C7800
3CF800
3CF800
3EF800
3FF000
3FF000
1FE000
04E000
04A000
008000
ENDCHAR
STARTCHAR Ocircumflex
ENCODING 212
SWIDTH 504 0
DWIDTH 16 0
BBX 15 39 0 -3
BITMAP
0FE0
0FE0
1FF0
1FF0
1EF8
3EF8
3C7C
783C
701E
E00C
0000
0000
01C0
0FF0
1FFC
3FFE
7FFE
7FFE
7FFE
7FFE
7FFE
7FFE
7FFE
7E7E
3E7E
3E7E
3C3E
3E3E
3E3E
3E3C
1E7C
1E7C
1F7C
1FF8
1FF8
0FF0
0270
0250
0040
ENDCHAR
STARTCHAR Otilde
ENCODING 213
SWIDTH 504 0
DWIDTH 16 0
BBX 15 36 0 -3
BITMAP
0040
30F0
F9F8
FFFE
7FFC
3FFC
3E18
0800
0000
01C0
0FF0
1FFC
3FFE
7FFE
7FFE
7FFE
7FFE
7FFE
7FFE
7FFE
7E7E
3E7E
3E7E
3C3E
3E3E
3E3E
3E3C
1E7C
1E7C
1F7C
1FF8
1FF8
0FF0
0270
0250
0040
ENDCHAR
STARTCHAR Odieresis
ENCODING 214
SWIDTH 504 0
DWIDTH 16 0
BBX 16 36 0 -3
BITMAP
FC7F
FC7F
FC7F
FC7E
FC7F
FC7F
FC7F
0000
0000
01C0
0FF0
1FFC
3FFE
7FFE
7FFE
7FFE
7FFE
7FFE
7FFE
7FFE
7E7E
3E7E
3E7E
3C3E
3E3E
3E3E
3E3C
1E7C
1E7C
1F7C
1FF8
1FF8
0FF0
0270
0250
0040
ENDCHAR
STARTCHAR multiply
ENCODING 215
SWIDTH 359 0
DWIDTH 12 0
BBX 11 12 0 6
BITMAP
1080
39C0
7FE0
FFE0
3FC0
1F80
1F80
3FC0
FFE0
7FE0
39C0
1080
ENDCHAR
STARTCHAR Oslash
ENCODING 216
SWIDTH 658 0
DWIDTH 21 0
BBX 22 27 -1 -3
BITMAP
006800
03FE00
07FF04
0FFF8C
1FFFD8
1FFFF0
1FFFE0
1FFFC0
1FFF80
1FFFC0
1FFFC0
1F9FC0
0F8FC0
0F9FC0
0F3FC0
0FEFC0
0FCF80
0F8F80
0F9F80
079F80
0FDF00
1FFF00
37FF00
63FE00
409A00
809A00
001000
ENDCHAR
STARTCHAR Ugrave
ENCODING 217
SWIDTH 637 0
DWIDTH 20 0
BBX 20 35 0 -2
BITMAP
080000
1E0000
1F0000
3F8000
7FC000
0FF000
01E000
002000
000000
079000
FF8FC0
3F8FF0
1F9FC0
1F8FC0
1F8FC0
1F8FC0
1F8F80
1F8F80
1F8F80
1F8F00
0F8F00
0F9F00
0F9F00
0F9F00
0F9F00
0F9F00
0F9F00
0F9F00
0F9E00
07FE00
07FE00
07BC00
03A800
032800
000800
ENDCHAR
STARTCHAR Uacute
ENCODING 218
SWIDTH 637 0
DWIDTH 20 0
BBX 21 35 0 -2
BITMAP
000060
0000E0
0001E0
0007F0
000FF8
001FE0
001E00
001000
000000
079000
FF8FC0
3F8FF0
1F9FC0
1F8FC0
1F8FC0
1F8FC0
1F8F80
1F8F80
1F8F80
1F8F00
0F8F00
0F9F00
0F9F00
0F9F00
0F9F00
0F9F00
0F9F00
0F9F00
0F9E00
07FE00
07FE00
07BC00
03A800
032800
000800
ENDCHAR
STARTCHAR Ucircumflex
ENCODING 219
SWIDTH 637 0
DWIDTH 20 0
BBX 20 38 0 -2
BITMAP
01F800
03FC00
03FC00
07FE00
07FE00
079F00
0F0F00
0E0780
1C0780
1C0300
000000
000000
079000
FF8FC0
3F8FF0
1F9FC0
1F8FC0
1F8FC0
1F8FC0
1F8F80
1F8F80
1F8F80
1F8F00
0F8F00
0F9F00
0F9F00
0F9F00
0F9F00
0F9F00
0F9F00
0F9F00
0F9E00
07FE00
07FE00
07BC00
03A800
032800
000800
ENDCHAR
STARTCHAR Udieresis
ENCODING 220
SWIDTH 637 0
DWIDTH 20 0
BBX 20 35 0 -2
BITMAP
1F9FC0
1F8FC0
1F8FC0
1F8FC0
1F8FC0
1F8FC0
1F8FC0
000000
000000
079000
FF8FC0
3F8FF0
1F9FC0
1F8FC0
1F8FC0
1F8FC0
1F8F80
1F8F80
1F8F80
1F8F00
0F8F00
0F9F00
0F9F00
0F9F00
0F9F00
0F9F00
0F9F00
0F9F00
0F9E00
07FE00
07FE00
07BC00
03A800
032800
000800
ENDCHAR
STARTCHAR Yacute
ENCODING 221
SWIDTH 688 0
DWIDTH 22 0
BBX 23 35 0 -1
BITMAP
000030
000070
0000F0
0003F8
0007FC
000FE0
000F00
000800
000000
000000
0B8200
FFC3F0
3FC7FE
0FE7F8
07E7E0
03FFC0
01FFC0
00FF80
00FF00
007F00
007F00
007F00
003F00
003F00
003F00
001F00
001E00
001E00
001E00
001E00
001E00
001E00
001E00
001E00
000E00
ENDCHAR
STARTCHAR Thorn
ENCODING 222
SWIDTH 521 0
DWIDTH 17 0
BBX 16 33 0 -4
BITMAP
FFC0
7F80
7F80
7F80
7F00
7FA0
7FFC
7FFE
3FFE
3FFF
3FFF
3FFF
3FFF
3FFF
3FFE
3F1E
3F9E
3F9E
1F9E
1F9E
1FFC
1FFC
1FFC
0FF8
0F80
0F80
0F80
0F80
0F80
0D80
0D80
0980
0500
ENDCHAR
STARTCHAR germandbls
ENCODING 223
SWIDTH 546 0
DWIDTH 18 0
BBX 16 25 1 -2
BITMAP
3FFC
7FFE
7FFE
FFFE
FFFF
FFFF
FFFE
FFFF
FFFE
FFFE
FE7E
7E7C
7E7C
7F78
7EF8
7EF0
7EF8
3EF8
3C78
3E78
3E78
3F78
3DF8
3DF0
24F0
ENDCHAR
STARTCHAR agrave
ENCODING 224
SWIDTH 479 0
DWIDTH 15 0
BBX 17 37 -1 -3
BITMAP
100000
380000
3E0000
7F0000
FF8000
1FC000
03C000
004000
000000
000000
07FF80
7FFE00
1FFE00
0FFC00
0FFC00
0FFC00
0FFC00
07FC00
07FC00
0FFC00
0FFC00
07FC00
07FC00
07FC00
0FFC00
0F3C00
0F3C00
0F3C00
0F3C00
0FFC00
0FFC00
0FFC00
0F7800
0F3800
0F3800
0E3800
0E0000
ENDCHAR
STARTCHAR aacute
ENCODING 225
SWIDTH 479 0
DWIDTH 15 0
BBX 19 37 0 -3
BITMAP
000100
000380
000780
001FC0
003FE0
007F00
007800
004000
000000
000000
0FFF00
FFFC00
3FFC00
1FF800
1FF800
1FF800
1FF800
0FF800
0FF800
1FF800
1FF800
0FF800
0FF800
0FF800
1FF800
1E7800
1E7800
1E7800
1E7800
1FF800
1FF800
1FF800
1EF000
1E7000
1E7000
1C7000
1C0000
ENDCHAR
STARTCHAR acircumflex
ENCODING 226
SWIDTH 479 0
DWIDTH 15 0
BBX 16 39 0 -3
BITMAP
07E0
0FF0
0FF0
1FF8
1FF8
1E7C
3C3C
383E
701E
700C
0000
0000
0FFF
FFFC
3FFC
1FF8
1FF8
1FF8
1FF8
0FF8
0FF8
1FF8
1FF8
0FF8
0FF8
0FF8
1FF8
1E78
1E78
1E78
1E78
1FF8
1FF8
1FF8
1EF0
1E70
1E70
1C70
1C00
ENDCHAR
STARTCHAR atilde
ENCODING 227
SWIDTH 479 0
DWIDTH 15 0
BBX 16 36 0 -3
BITMAP
0020
3078
79FC
FFFC
7FFE
3FFC
1F18
0400
0000
0FFF
FFFC
3FFC
1FF8
1FF8
1FF8
1FF8
0FF8
0FF8
1FF8
1FF8
0FF8
0FF8
0FF8
1FF8
1E78
1E78
1E78
1E78
1FF8
1FF8
1FF8
1EF0
1E70
1E70
1C70
1C00
ENDCHAR
STARTCHAR adieresis
ENCODING 228
SWIDTH 479 0
DWIDTH 15 0
BBX 16 36 0 -3
BITMAP
7E7F
7E3F
7E3F
7E3F
7E3F
7E3F
7E3F
0000
0000
0FFF
FFFC
3FFC
1FF8
1FF8
1FF8
1FF8
0FF8
0FF8
1FF8
1FF8
0FF8
0FF8
0FF8
1FF8
1E78
1E78
1E78
1E78
1FF8
1FF8
1FF8
1EF0
1E70
1E70
1C70
1C00
ENDCHAR
STARTCHAR aring
ENCODING 229
SWIDTH 479 0
DWIDTH 15 0
BBX 16 38 0 -3
BITMAP
07E0
0FF0
0F78
0E30
0E38
0630
07E0
07E0
0080
0000
0000
0FFF
FFFC
3FFC
1FF8
1FF8
1FF8
1FF8
0FF8
0FF8
1FF8
1FF8
0FF8
0FF8
0FF8
1FF8
1E78
1E78
1E78
1E78
1FF8
1FF8
1FF8
1EF0
1E70
1E70
1C70
1C00
ENDCHAR
STARTCHAR ae
ENCODING 230
SWIDTH 755 0
DWIDTH 24 0
BBX 23 27 0 -3
BITMAP
0FFF80
FFFFFE
3FFFFE
1FFFFC
1FFFF8
1FFFF8
0FFFF8
0FFFF8
0FFFF8
1FFFF0
1FFFF0
0FFC70
0FFC00
0FFC00
1F7FC0
1F7FC0
1F7FC0
1E7FC0
1E7FC0
0FFC00
1FFE00
1FFDE0
0F7FE0
1E7FE0
1E73E0
1E7020
0C0000
ENDCHAR
STARTCHAR ccedilla
ENCODING 231
SWIDTH 534 0
DWIDTH 17 0
BBX 16 37 1 -13
BITMAP
03E0
1FF8
3FFC
7FFC
7FFF
FFFE
FFFE
FFFE
FFFE
FFFE
FFFE
FF7E
7E3E
7E3E
7E5E
7E00
7E00
3E00
3E78
3E7C
3E78
3FF8
1FF8
1FF0
0B60
0240
00E0
00E0
00C0
01C0
01F8
01F8
0038
0038
00F8
01F8
0138
ENDCHAR
STARTCHAR egrave
ENCODING 232
SWIDTH 632 0
DWIDTH 20 0
BBX 19 35 0 -2
BITMAP
180000
1C0000
1E0000
3F8000
7FC000
1FE000
01E000
002000
000000
002000
3FFFE0
FFFFE0
3FFFC0
3FFFC0
1FFF80
1FFF80
1FFF80
1FFF80
0FFF00
0FFF00
0FC300
0FC000
0FC000
0FFC00
07FC00
07FC00
07FC00
07FC00
07C000
07C000
07FE00
03FE00
03FE00
027E00
020200
ENDCHAR
STARTCHAR eacute
ENCODING 233
SWIDTH 632 0
DWIDTH 20 0
BBX 21 35 0 -2
BITMAP
000040
0001E0
0003E0
0007F0
000FF8
001FC0
003E00
001000
000000
002000
3FFFE0
FFFFE0
3FFFC0
3FFFC0
1FFF80
1FFF80
1FFF80
1FFF80
0FFF00
0FFF00
0FC300
0FC000
0FC000
0FFC00
07FC00
07FC00
07FC00
07FC00
07C000
07C000
07FE00
03FE00
03FE00
027E00
020200
ENDCHAR
STARTCHAR ecircumflex
ENCODING 234
SWIDTH 632 0
DWIDTH 20 0
BBX 19 38 0 -2
BITMAP
03F800
03F800
03FC00
07FC00
07FE00
0FBF00
0F1F00
1E0F80
1C0780
180300
000000
000000
002000
3FFFE0
FFFFE0
3FFFC0
3FFFC0
1FFF80
1FFF80
1FFF80
1FFF80
0FFF00
0FFF00
0FC300
0FC000
0FC000
0FFC00
07FC00
07FC00
07FC00
07FC00
07C000
07C000
07FE00
03FE00
03FE00
027E00
020200
ENDCHAR
STARTCHAR edieresis
ENCODING 235
SWIDTH 632 0
DWIDTH 20 0
BBX 19 35 0 -2
BITMAP
3F9FC0
3F9FC0
3F9FC0
3F1FC0
3F9FC0
3F9FC0
3F1FC0
000000
000000
002000
3FFFE0
FFFFE0
3FFFC0
3FFFC0
1FFF80
1FFF80
1FFF80
1FFF80
0FFF00
0FFF00
0FC300
0FC000
0FC000
0FFC00
07FC00
07FC00
07FC00
07FC00
07C000
07C000
07FE00
03FE00
03FE00
027E00
020200
ENDCHAR
STARTCHAR igrave
ENCODING 236
SWIDTH 411 0
DWIDTH 13 0
BBX 16 34 -3 -1
BITMAP
1000
3C00
3E00
7F00
FF80
1FE0
03E0
0020
0000
01B1
1FFE
07FE
03FC
03FC
01FC
01F8
01F8
01F8
01F8
01F8
01F0
01F0
01F0
01F8
01F8
01F0
00F0
00F0
00F0
00F0
00F0
00F0
00B0
0030
ENDCHAR
STARTCHAR iacute
ENCODING 237
SWIDTH 411 0
DWIDTH 13 0
BBX 17 34 0 -1
BITMAP
000600
000E00
001E00
003F00
00FF80
01FE00
01E000
010000
000000
0D8800
FFF000
3FF000
1FE000
1FE000
0FE000
0FC000
0FC000
0FC000
0FC000
0FC000
0F8000
0F8000
0F8000
0FC000
0FC000
0F8000
078000
078000
078000
078000
078000
078000
058000
018000
ENDCHAR
STARTCHAR icircumflex
ENCODING 238
SWIDTH 411 0
DWIDTH 13 0
BBX 14 37 0 -1
BITMAP
0FC0
1FE0
1FE0
3FF0
3FF0
3CF8
7878
703C
E03C
E018
0000
0000
0D88
FFF0
3FF0
1FE0
1FE0
0FE0
0FC0
0FC0
0FC0
0FC0
0FC0
0F80
0F80
0F80
0FC0
0FC0
0F80
0780
0780
0780
0780
0780
0780
0580
0180
ENDCHAR
STARTCHAR idieresis
ENCODING 239
SWIDTH 411 0
DWIDTH 13 0
BBX 16 34 -1 -1
BITMAP
FC7E
FC7E
FC7E
FC7F
FC7E
FC7E
FC7E
0000
0000
06C4
7FF8
1FF8
0FF0
0FF0
07F0
07E0
07E0
07E0
07E0
07E0
07C0
07C0
07C0
07E0
07E0
07C0
03C0
03C0
03C0
03C0
03C0
03C0
02C0
00C0
ENDCHAR
STARTCHAR eth
ENCODING 240
SWIDTH 530 0
DWIDTH 17 0
BBX 17 29 1 -5
BITMAP
003000
5FF800
3FFC00
7FFF00
3FFF00
1FFF00
1FFF00
1FFF80
1FFF80
1FFF00
1FFF00
0F9F00
0F8F00
0F8F00
FFEE00
FFCE00
0F8E00
0F9E00
0F9C00
079C00
07FC00
07FC00
07FC00
067800
047800
046000
046000
044000
004000
ENDCHAR
STARTCHAR ntilde
ENCODING 241
SWIDTH 664 0
DWIDTH 21 0
BBX 21 36 0 -3
BITMAP
000400
060F00
0F3F00
1FFF80
0FFFC0
07FF80
07C300
010000
000000
87C800
7FCFF8
3FC7F0
3FC7E0
1FE7E0
3FE7C0
1FE7C0
1FF7C0
1FFFC0
1FFFC0
1FFFC0
1FFF80
1FFF80
1FFF80
1FFF80
0FFF80
0F7F80
0F7F00
0F7F00
0F3F00
0F3F00
0F3F00
073E00
071E00
071E00
069E00
001400
ENDCHAR
STARTCHAR ograve
ENCODING 242
SWIDTH 545 0
DWIDTH 17 0
BBX 18 35 -1 -2
BITMAP
180000
3C0000
3E0000
7F0000
FF8000
1FE000
03E000
002000
000000
006800
07FC00
0FFF00
1FFF00
1FFF80
3FFFC0
3FFFC0
3FFFC0
3FFFC0
3FFFC0
3FBFC0
1F9FC0
1F1FC0
1F1F80
1F1F80
1F1F80
1F1F80
1F1F00
0F1F00
0F9F00
0FBE00
0FFF00
07FE00
05FC00
00BC00
003400
ENDCHAR
STARTCHAR oacute
ENCODING 243
SWIDTH 545 0
DWIDTH 17 0
BBX 19 35 1 -2
BITMAP
000300
000700
000F00
001F80
007FE0
00FF00
00F000
008000
000000
01A000
1FF000
3FFC00
7FFC00
7FFE00
FFFF00
FFFF00
FFFF00
FFFF00
FFFF00
FEFF00
7E7F00
7C7F00
7C7E00
7C7E00
7C7E00
7C7E00
7C7C00
3C7C00
3E7C00
3EF800
3FFC00
1FF800
17F000
02F000
00D000
ENDCHAR
STARTCHAR ocircumflex
ENCODING 244
SWIDTH 545 0
DWIDTH 17 0
BBX 16 38 1 -2
BITMAP
0FC0
0FE0
1FF0
1FF0
3FF8
3CF8
787C
783C
F01E
601C
0000
0000
01A0
1FF0
3FFC
7FFC
7FFE
FFFF
FFFF
FFFF
FFFF
FFFF
FEFF
7E7F
7C7F
7C7E
7C7E
7C7E
7C7E
7C7C
3C7C
3E7C
3EF8
3FFC
1FF8
17F0
02F0
00D0
ENDCHAR
STARTCHAR otilde
ENCODING 245
SWIDTH 545 0
DWIDTH 17 0
BBX 16 35 1 -2
BITMAP
0040
70F0
F1F8
FFFC
FFFC
7FF8
3E30
0800
0000
01A0
1FF0
3FFC
7FFC
7FFE
FFFF
FFFF
FFFF
FFFF
FFFF
FEFF
7E7F
7C7F
7C7E
7C7E
7C7E
7C7E
7C7C
3C7C
3E7C
3EF8
3FFC
1FF8
17F0
02F0
00D0
ENDCHAR
STARTCHAR odieresis
ENCODING 246
SWIDTH 545 0
DWIDTH 17 0
BBX 16 35 1 -2
BITMAP
FC7E
FC7E
FC7E
FC7E
FC7F
FC7E
FC7E
0000
0000
01A0
1FF0
3FFC
7FFC
7FFE
FFFF
FFFF
FFFF
FFFF
FFFF
FEFF
7E7F
7C7F
7C7E
7C7E
7C7E
7C7E
7C7C
3C7C
3E7C
3EF8
3FFC
1FF8
17F0
02F0
00D0
ENDCHAR
STARTCHAR oslash
ENCODING 248
SWIDTH 676 0
DWIDTH 22 0
BBX 21 26 0 -2
BITMAP
00D000
07F808
1FFE10
1FFE20
3FFF40
7FFF80
7FFF80
7FFF00
7FFF80
3FFF80
3F7F00
3F3F80
3E7F00
3E7F00
3EBF00
1F3F00
1E3F00
1E3E00
1E3E00
1F3E00
3F7E00
6FFC00
4FFC00
8BF800
817800
006800
ENDCHAR
STARTCHAR ugrave
ENCODING 249
SWIDTH 708 0
DWIDTH 23 0
BBX 23 33 0 0
BITMAP
040000
0F0000
0F8000
1FC000
3FE000
07F800
00F800
000800
000000
03C400
FFC3E0
3FC3FE
1FC7FC
1FC7F8
1FC7F8
1FC3F0
1FC3F0
0FE7E0
0FE7E0
0FE7E0
0FE7E0
0FC7E0
0FC7E0
07C7C0
0FC7C0
07E7C0
07E7C0
07EFC0
03EFC0
03FF80
03FFC0
03FF80
00EB00
ENDCHAR
STARTCHAR uacute
ENCODING 250
SWIDTH 708 0
DWIDTH 23 0
BBX 23 33 0 0
BITMAP
000030
000070
0000F0
0001F8
0007FC
000FF0
000F00
000800
000000
03C400
FFC3E0
3FC3FE
1FC7FC
1FC7F8
1FC7F8
1FC3F0
1FC3F0
0FE7E0
0FE7E0
0FE7E0
0FE7E0
0FC7E0
0FC7E0
07C7C0
0FC7C0
07E7C0
07E7C0
07EFC0
03EFC0
03FF80
03FFC0
03FF80
00EB00
ENDCHAR
STARTCHAR ucircumflex
ENCODING 251
SWIDTH 708 0
DWIDTH 23 0
BBX 23 36 0 0
BITMAP
00FC00
00FE00
01FE00
01FF00
03FF00
03CF80
0787C0
0783C0
0F01E0
0601C0
000000
000000
03C400
FFC3E0
3FC3FE
1FC7FC
1FC7F8
1FC7F8
1FC3F0
1FC3F0
0FE7E0
0FE7E0
0FE7E0
0FE7E0
0FC7E0
0FC7E0
07C7C0
0FC7C0
07E7C0
07E7C0
07EFC0
03EFC0
03FF80
03FFC0
03FF80
00EB00
ENDCHAR
STARTCHAR udieresis
ENCODING 252
SWIDTH 708 0
DWIDTH 23 0
BBX 23 33 0 0
BITMAP
0FC7E0
0FC7E0
0FC7E0
0FC7F0
0FC7E0
0FC7E0
0FC7E0
000000
000000
03C400
FFC3E0
3FC3FE
1FC7FC
1FC7F8
1FC7F8
1FC3F0
1FC3F0
0FE7E0
0FE7E0
0FE7E0
0FE7E0
0FC7E0
0FC7E0
07C7C0
0FC7C0
07E7C0
07E7C0
07EFC0
03EFC0
03FF80
03FFC0
03FF80
00EB00
ENDCHAR
STARTCHAR yacute
ENCODING 253
SWIDTH 604 0
DWIDTH 19 0
BBX 21 36 0 -2
BITMAP
0000C0
0001C0
0003E0
0007F0
000FF8
003FC0
003E00
002000
000000
000000
0A0800
FF0F80
3F9FE0
0F9F80
079F00
07FF00
03FE00
01FC00
01FC00
01F800
01F800
01F800
00F800
00F800
00F800
00F800
00F800
00F800
00F800
00F800
00F800
00F800
00F000
00F000
00F000
005000
ENDCHAR
STARTCHAR thorn
ENCODING 254
SWIDTH 498 0
DWIDTH 16 0
BBX 15 33 0 -4
BITMAP
FF80
7F00
7F00
7F00
7F00
7F40
7FFC
7FFC
3FFE
3FFE
3FFE
3FFE
3FFE
3FFE
3FFE
3F3E
3F3E
3F1E
1F1C
1F1C
1FFC
1FFC
1FF8
0FF8
0F80
0F80
0F80
0F80
0F80
0D80
0D80
0980
0500
ENDCHAR
STARTCHAR ydieresis
ENCODING 255
SWIDTH 604 0
DWIDTH 19 0
BBX 19 35 0 -2
BITMAP
1F8FE0
1F8FC0
1F8FC0
1F8FC0
1F8FE0
1F8FE0
1F8FC0
000000
000000
0A0800
FF0F80
3F9FE0
0F9F80
079F00
07FF00
03FE00
01FC00
01FC00
01F800
01F800
01F800
00F800
00F800
00F800
00F800
00F800
00F800
00F800
00F800
00F800
00F800
00F000
00F000
00F000
005000
ENDCHAR
STARTCHAR Amacron
ENCODING 256
SWIDTH 494 0
DWIDTH 16 0
BBX 15 36 0 -7
BITMAP
3FF8
3FF8
3FF8
0FD8
0000
0000
FFFE
3FFC
0FF8
1FF8
1FF0
0FF0
0FF0
1FF0
1FF0
1FF0
0FF0
0FF0
1EF0
1EF0
1EF0
1EF0
0EF0
1FF0
1FF0
1FF0
1FF0
1EE0
0EE0
0CE0
0CE0
0CE0
0A20
0040
0080
0080
ENDCHAR
STARTCHAR amacron
ENCODING 257
SWIDTH 479 0
DWIDTH 15 0
BBX 16 33 0 -3
BITMAP
1FF8
1FFC
1FF8
07E8
0000
0000
0FFF
FFFC
3FFC
1FF8
1FF8
1FF8
1FF8
0FF8
0FF8
1FF8
1FF8
0FF8
0FF8
0FF8
1FF8
1E78
1E78
1E78
1E78
1FF8
1FF8
1FF8
1EF0
1E70
1E70
1C70
1C00
ENDCHAR
STARTCHAR Abreve
ENCODING 258
SWIDTH 494 0
DWIDTH 16 0
BBX 15 42 0 -7
BITMAP
1E00
1E0E
0E1E
0F1E
0FFE
0FFC
05FC
0138
0028
0000
0000
0000
FFFE
3FFC
0FF8
1FF8
1FF0
0FF0
0FF0
1FF0
1FF0
1FF0
0FF0
0FF0
1EF0
1EF0
1EF0
1EF0
0EF0
1FF0
1FF0
1FF0
1FF0
1EE0
0EE0
0CE0
0CE0
0CE0
0A20
0040
0080
0080
ENDCHAR
STARTCHAR abreve
ENCODING 259
SWIDTH 479 0
DWIDTH 15 0
BBX 16 38 0 -3
BITMAP
1E00
1E1F
0E1E
0F1E
0FFE
0FFC
05FC
0138
0028
0000
0000
0FFF
FFFC
3FFC
1FF8
1FF8
1FF8
1FF8
0FF8
0FF8
1FF8
1FF8
0FF8
0FF8
0FF8
1FF8
1E78
1E78
1E78
1E78
1FF8
1FF8
1FF8
1EF0
1E70
1E70
1C70
1C00
ENDCHAR
STARTCHAR Aogonek
ENCODING 260
SWIDTH 494 0
DWIDTH 16 0
BBX 15 36 0 -13
BITMAP
FFFE
3FFC
0FF8
1FF8
1FF0
0FF0
0FF0
1FF0
1FF0
1FF0
0FF0
0FF0
1EF0
1EF0
1EF0
1EF0
0EF0
1FF0
1FF0
1FF0
1FF0
1EE0
0EE0
0CE0
0CE0
0CE0
0BE0
01C0
01C0
01C0
01E0
01E0
01FE
01FE
00FE
007E
ENDCHAR
STARTCHAR aogonek
ENCODING 261
SWIDTH 479 0
DWIDTH 15 0
BBX 17 36 0 -12
BITMAP
0FFF00
FFFC00
3FFC00
1FF800
1FF800
1FF800
1FF800
0FF800
0FF800
1FF800
1FF800
0FF800
0FF800
0FF800
1FF800
1E7800
1E7800
1E7800
1E7800
1FF800
1FF800
1FF800
1EF000
1E7000
1E7000
1C7000
1C7000
007000
007000
007000
007000
007F80
007F80
003F80
001F00
000200
ENDCHAR
STARTCHAR Cacute
ENCODING 262
SWIDTH 504 0
DWIDTH 16 0
BBX 16 37 1 -4
BITMAP
000C
001C
003C
007E
01FF
03FC
03C0
0200
0000
07C0
1FF0
3FF8
7FFC
7FFC
FFFC
FFFC
FFFC
FFFC
FFFC
FFFC
FCFC
FC7C
7C7C
7C00
7C00
7C00
7C00
3C78
3C78
3EF8
3FF0
3FF0
1FE0
05C0
0580
0580
0180
ENDCHAR
STARTCHAR cacute
ENCODING 263
SWIDTH 534 0
DWIDTH 17 0
BBX 17 35 1 -2
BITMAP
000400
000E00
003E00
007F00
00FF80
01FC00
03E000
010000
000000
03E000
1FF800
3FFC00
7FFC00
7FFF00
FFFE00
FFFE00
FFFE00
FFFE00
FFFE00
FFFE00
FF7E00
7E3E00
7E3E00
7E5E00
7E0000
7E0000
3E0000
3E7800
3E7C00
3E7800
3FF800
1FF800
1FF000
0B6000
024000
ENDCHAR
STARTCHAR Ccircumflex
ENCODING 264
SWIDTH 504 0
DWIDTH 16 0
BBX 15 40 1 -4
BITMAP
0FE0
0FE0
1FF0
1FF0
1EF8
3EF8
3C7C
783C
701E
E00C
0000
0000
07C0
1FF0
3FF8
7FFC
7FFC
FFFC
FFFC
FFFC
FFFC
FFFC
FFFC
FCFC
FC7C
7C7C
7C00
7C00
7C00
7C00
3C78
3C78
3EF8
3FF0
3FF0
1FE0
05C0
0580
0580
0180
ENDCHAR
STARTCHAR ccircumflex
ENCODING 265
SWIDTH 534 0
DWIDTH 17 0
BBX 16 38 1 -2
BITMAP
07F0
07F0
0FF8
0FF8
1FFC
1F7C
1E3E
3C1E
380F
7006
0000
0000
03E0
1FF8
3FFC
7FFC
7FFF
FFFE
FFFE
FFFE
FFFE
FFFE
FFFE
FF7E
7E3E
7E3E
7E5E
7E00
7E00
3E00
3E78
3E7C
3E78
3FF8
1FF8
1FF0
0B60
0240
ENDCHAR
STARTCHAR Cdotaccent
ENCODING 266
SWIDTH 504 0
DWIDTH 16 0
BBX 14 40 1 -4
BITMAP
0FF0
1FF0
1FF0
0FF0
0FF0
0FF0
0FF0
0FF0
0FF0
0E00
0000
0000
07C0
1FF0
3FF8
7FFC
7FFC
FFFC
FFFC
FFFC
FFFC
FFFC
FFFC
FCFC
FC7C
7C7C
7C00
7C00
7C00
7C00
3C78
3C78
3EF8
3FF0
3FF0
1FE0
05C0
0580
0580
0180
ENDCHAR
STARTCHAR cdotaccent
ENCODING 267
SWIDTH 534 0
DWIDTH 17 0
BBX 16 38 1 -2
BITMAP
1FF0
0FF0
0FF0
0FF0
0FF0
0FF0
0FF0
07F0
07F0
0600
0000
0000
03E0
1FF8
3FFC
7FFC
7FFF
FFFE
FFFE
FFFE
FFFE
FFFE
FFFE
FF7E
7E3E
7E3E
7E5E
7E00
7E00
3E00
3E78
3E7C
3E78
3FF8
1FF8
1FF0
0B60
0240
ENDCHAR
STARTCHAR Ccaron
ENCODING 268
SWIDTH 504 0
DWIDTH 16 0
BBX 15 41 1 -4
BITMAP
2018
F03C
F83E
787C
7CF8
3CF8
3FF0
1FF0
1FE0
1FE0
0FC0
0000
0000
07C0
1FF0
3FF8
7FFC
7FFC
FFFC
FFFC
FFFC
FFFC
FFFC
FFFC
FCFC
FC7C
7C7C
7C00
7C00
7C00
7C00
3C78
3C78
3EF8
3FF0
3FF0
1FE0
05C0
0580
0580
0180
ENDCHAR
STARTCHAR ccaron
ENCODING 269
SWIDTH 534 0
DWIDTH 17 0
BBX 16 39 1 -2
BITMAP
100C
381E
7C1F
3C3E
3E3E
1F7C
1FFC
0FF8
0FF8
07F0
07E0
0000
0000
03E0
1FF8
3FFC
7FFC
7FFF
FFFE
FFFE
FFFE
FFFE
FFFE
FFFE
FF7E
7E3E
7E3E
7E5E
7E00
7E00
3E00
3E78
3E7C
3E78
3FF8
1FF8
1FF0
0B60
0240
ENDCHAR
STARTCHAR Dcaron
ENCODING 270
SWIDTH 522 0
DWIDTH 17 0
BBX 16 42 1 -5
BITMAP
1804
3C0E
3C1F
3E1E
1E3E
1F7C
0FFC
0FF8
07F8
07F0
07F0
0000
0000
0000
BFF0
7FF8
FFFC
7FFE
7FFE
3FFE
3FFE
3FFE
3FFE
3FFE
3F3E
3F3C
3E1C
1E3C
1E3C
1F3C
1E38
1E38
1F38
1FF8
1FF8
1FF8
19F0
19E0
09C0
0940
0900
0080
ENDCHAR
STARTCHAR dcaron
ENCODING 271
SWIDTH 522 0
DWIDTH 17 0
BBX 16 42 1 -5
BITMAP
1804
3C0E
3C1F
3E1E
1E3E
1F7C
0FFC
0FF8
07F8
07F0
07F0
0000
0000
0000
BFF0
7FF8
FFFC
7FFE
7FFE
3FFE
3FFE
3FFE
3FFE
3FFE
3F3E
3F3C
3E1C
1E3C
1E3C
1F3C
1E38
1E38
1F38
1FF8
1FF8
1FF8
19F0
19E0
09C0
0940
0900
0080
ENDCHAR
STARTCHAR Eth.dup2
ENCODING 272
SWIDTH 530 0
DWIDTH 17 0
BBX 17 29 1 -5
BITMAP
003000
5FF800
3FFC00
7FFF00
3FFF00
1FFF00
1FFF00
1FFF80
1FFF80
1FFF00
1FFF00
0F9F00
0F8F00
0F8F00
FFEE00
FFCE00
0F8E00
0F9E00
0F9C00
079C00
07FC00
07FC00
07FC00
067800
047800
046000
046000
044000
004000
ENDCHAR
STARTCHAR Emacron
ENCODING 274
SWIDTH 570 0
DWIDTH 18 0
BBX 16 31 1 -2
BITMAP
1FF8
1FFC
1FF8
07C8
0000
0300
FFFF
7FFE
7FFE
3FFE
3FFE
3FFC
3FFC
3FFC
3FF8
3EF8
3E08
3E00
3EE0
1FF0
1FE0
1FE0
1FE0
1E00
1E00
1FF0
1FF0
1FF0
13F0
1390
0220
ENDCHAR
STARTCHAR emacron
ENCODING 275
SWIDTH 632 0
DWIDTH 20 0
BBX 19 32 0 -2
BITMAP
0FFE00
0FFE00
0FFE00
03FE00
000000
000000
002000
3FFFE0
FFFFE0
3FFFC0
3FFFC0
1FFF80
1FFF80
1FFF80
1FFF80
0FFF00
0FFF00
0FC300
0FC000
0FC000
0FFC00
07FC00
07FC00
07FC00
07FC00
07C000
07C000
07FE00
03FE00
03FE00
027E00
020200
ENDCHAR
STARTCHAR Ebreve
ENCODING 276
SWIDTH 570 0
DWIDTH 18 0
BBX 16 37 1 -2
BITMAP
1E00
0E0F
0E1E
0F1E
0FFE
07FC
05FC
0138
0024
0000
0000
0300
FFFF
7FFE
7FFE
3FFE
3FFE
3FFC
3FFC
3FFC
3FF8
3EF8
3E08
3E00
3EE0
1FF0
1FE0
1FE0
1FE0
1E00
1E00
1FF0
1FF0
1FF0
13F0
1390
0220
ENDCHAR
STARTCHAR ebreve
ENCODING 277
SWIDTH 632 0
DWIDTH 20 0
BBX 19 37 0 -2
BITMAP
03C000
03C3C0
03C3C0
01E3C0
01FF80
01FF80
00FF00
002700
000500
000000
000000
002000
3FFFE0
FFFFE0
3FFFC0
3FFFC0
1FFF80
1FFF80
1FFF80
1FFF80
0FFF00
0FFF00
0FC300
0FC000
0FC000
0FFC00
07FC00
07FC00
07FC00
07FC00
07C000
07C000
07FE00
03FE00
03FE00
027E00
020200
ENDCHAR
STARTCHAR Edotaccent
ENCODING 278
SWIDTH 570 0
DWIDTH 18 0
BBX 16 38 1 -2
BITMAP
1FF0
0FF0
0FF0
0FF0
0FF0
0FF0
0FF0
0FF0
0FF0
0E00
0000
0000
0300
FFFF
7FFE
7FFE
3FFE
3FFE
3FFC
3FFC
3FFC
3FF8
3EF8
3E08
3E00
3EE0
1FF0
1FE0
1FE0
1FE0
1E00
1E00
1FF0
1FF0
1FF0
13F0
1390
0220
ENDCHAR
STARTCHAR edotaccent
ENCODING 279
SWIDTH 632 0
DWIDTH 20 0
BBX 19 38 0 -2
BITMAP
03FC00
07FC00
03FC00
03FC00
03FC00
03FC00
03FC00
03FC00
03FC00
038000
000000
000000
002000
3FFFE0
FFFFE0
3FFFC0
3FFFC0
1FFF80
1FFF80
1FFF80
1FFF80
0FFF00
0FFF00
0FC300
0FC000
0FC000
0FFC00
07FC00
07FC00
07FC00
07FC00
07C000
07C000
07FE00
03FE00
03FE00
027E00
020200
ENDCHAR
STARTCHAR Eogonek
ENCODING 280
SWIDTH 513 0
DWIDTH 16 0
BBX 16 34 1 -10
BITMAP
0300
FFFF
7FFE
7FFE
3FFE
3FFE
3FFC
3FFC
3FFC
3FF8
3EF8
3E08
3E00
3EE0
1FF0
1FE0
1FE0
1FE0
1E00
1E00
1FF0
1FF0
1FF0
0FF0
09F0
01E0
01C0
01C0
01C0
01E0
01FE
01FE
00FE
007E
ENDCHAR
STARTCHAR eogonek
ENCODING 281
SWIDTH 632 0
DWIDTH 20 0
BBX 19 35 0 -11
BITMAP
002000
3FFFE0
FFFFE0
3FFFC0
3FFFC0
1FFF80
1FFF80
1FFF80
1FFF80
0FFF00
0FFF00
0FC300
0FC000
0FC000
0FFC00
07FC00
07FC00
07FC00
07FC00
07C000
07C000
07FE00
03FE00
03FC00
027C00
023800
003800
003800
003800
003C00
003FC0
003FC0
001FC0
000FC0
0000C0
ENDCHAR
STARTCHAR Ecaron
ENCODING 282
SWIDTH 570 0
DWIDTH 18 0
BBX 16 39 1 -2
BITMAP
1804
7C0E
3C1F
3E1E
1E3E
1F7C
0FFC
0FF8
07F8
07F0
07F0
0000
0000
0300
FFFF
7FFE
7FFE
3FFE
3FFE
3FFC
3FFC
3FFC
3FF8
3EF8
3E08
3E00
3EE0
1FF0
1FE0
1FE0
1FE0
1E00
1E00
1FF0
1FF0
1FF0
13F0
1390
0220
ENDCHAR
STARTCHAR ecaron
ENCODING 283
SWIDTH 632 0
DWIDTH 20 0
BBX 19 39 0 -2
BITMAP
020180
0F03C0
0F83E0
0787C0
07CF80
03CF80
03FF00
01FF00
01FE00
00FE00
00FC00
000000
000000
002000
3FFFE0
FFFFE0
3FFFC0
3FFFC0
1FFF80
1FFF80
1FFF80
1FFF80
0FFF00
0FFF00
0FC300
0FC000
0FC000
0FFC00
07FC00
07FC00
07FC00
07FC00
07C000
07C000
07FE00
03FE00
03FE00
027E00
020200
ENDCHAR
STARTCHAR Gcircumflex
ENCODING 284
SWIDTH 499 0
DWIDTH 16 0
BBX 14 39 1 -3
BITMAP
1FC0
1FC0
1FE0
3FE0
3FF0
7DF8
78F8
F07C
E03C
C018
0000
0000
0600
1FE0
7FF0
FFF8
7FFC
FFFC
FFFC
FFFC
FFFC
FFFC
FFFC
7CFC
7CFC
7CFC
780C
7D00
7DFC
7DFC
7DFC
3D7C
3C78
3FF8
3FF8
1FF8
0BF0
0AC0
04C0
ENDCHAR
STARTCHAR gcircumflex
ENCODING 285
SWIDTH 546 0
DWIDTH 18 0
BBX 16 39 1 -3
BITMAP
0FE0
0FE0
1FF0
1FF0
3FF8
3CF8
7C7C
783C
701E
E00C
0000
0000
0200
1FF0
3FFC
7FFC
FFFE
FFFF
FFFF
FFFF
FFFF
FFFF
FFFF
7EFE
7C7E
7C7E
7C3E
7C00
3CF0
3EFE
3EFE
3EFE
3E3E
1F3C
1FFC
1FFC
0FFC
05F8
0550
ENDCHAR
STARTCHAR Gbreve
ENCODING 286
SWIDTH 499 0
DWIDTH 16 0
BBX 14 38 1 -3
BITMAP
7800
383C
3878
3C78
3FF8
1FF0
17F0
04E0
0090
0000
0000
0600
1FE0
7FF0
FFF8
7FFC
FFFC
FFFC
FFFC
FFFC
FFFC
FFFC
7CFC
7CFC
7CFC
780C
7D00
7DFC
7DFC
7DFC
3D7C
3C78
3FF8
3FF8
1FF8
0BF0
0AC0
04C0
ENDCHAR
STARTCHAR gbreve
ENCODING 287
SWIDTH 546 0
DWIDTH 18 0
BBX 16 38 1 -3
BITMAP
3C00
3C3C
1C3C
1E3C
1FFC
1FF8
0FF8
0270
0050
0000
0000
0200
1FF0
3FFC
7FFC
FFFE
FFFF
FFFF
FFFF
FFFF
FFFF
FFFF
7EFE
7C7E
7C7E
7C3E
7C00
3CF0
3EFE
3EFE
3EFE
3E3E
1F3C
1FFC
1FFC
0FFC
05F8
0550
ENDCHAR
STARTCHAR Gdotaccent
ENCODING 288
SWIDTH 499 0
DWIDTH 16 0
BBX 14 39 1 -3
BITMAP
1FE0
3FE0
1FE0
1FE0
1FE0
1FE0
1FE0
1FE0
1FE0
1C00
0000
0000
0600
1FE0
7FF0
FFF8
7FFC
FFFC
FFFC
FFFC
FFFC
FFFC
FFFC
7CFC
7CFC
7CFC
780C
7D00
7DFC
7DFC
7DFC
3D7C
3C78
3FF8
3FF8
1FF8
0BF0
0AC0
04C0
ENDCHAR
STARTCHAR gdotaccent
ENCODING 289
SWIDTH 546 0
DWIDTH 18 0
BBX 16 39 1 -3
BITMAP
2FF0
1FF0
1FF0
1FE0
0FF0
0FF0
0FF0
0FF0
0FE0
0E00
0000
0000
0200
1FF0
3FFC
7FFC
FFFE
FFFF
FFFF
FFFF
FFFF
FFFF
FFFF
7EFE
7C7E
7C7E
7C3E
7C00
3CF0
3EFE
3EFE
3EFE
3E3E
1F3C
1FFC
1FFC
0FFC
05F8
0550
ENDCHAR
STARTCHAR Gcommaaccent
ENCODING 290
SWIDTH 499 0
DWIDTH 16 0
BBX 14 43 1 -19
BITMAP
0600
1FE0
7FF0
FFF8
7FFC
FFFC
FFFC
FFFC
FFFC
FFFC
FFFC
7CFC
7CFC
7CFC
780C
7D00
7DFC
7DFC
7DFC
3D7C
3C78
3FF8
3FF8
1FF8
0BF0
0AC0
04C0
0000
0000
0FF0
0FF0
0FF0
0FF0
0FF0
0FF0
0FF0
0FF0
0070
00F0
00E0
00E0
00E0
00E0
ENDCHAR
STARTCHAR Hcircumflex
ENCODING 292
SWIDTH 726 0
DWIDTH 23 0
BBX 23 42 0 -6
BITMAP
00FC00
01FE00
01FE00
01FF00
03FF00
03CF80
078780
0703C0
0F03C0
0E0180
000000
000000
002540
8FC7FE
7FC7FC
3FC7F8
1FC3F8
1FC7F0
1FC7F0
1FC7F0
1FC7E0
0FC7E0
0FC7E0
0F87E0
0F87C0
0FFFC0
0FFFC0
07FFC0
07FFC0
07C7C0
07CFC0
07CF80
07CF80
07CF80
07CF80
07CF80
068F80
000480
000100
000800
000800
001000
ENDCHAR
STARTCHAR hcircumflex
ENCODING 293
SWIDTH 730 0
DWIDTH 23 0
BBX 23 38 0 -2
BITMAP
00FC00
00FE00
01FE00
01FF00
03FF80
03CF80
0787C0
0783C0
0F01E0
0601C0
000000
000000
01E7D0
FFC7FE
3FC7FC
1FC3F8
1FC3F8
1FC7F0
1FC7F0
1FC7F0
1FC7F0
0FC7F0
0FC7E0
0FC7E0
0FC7C0
0FFFE0
07FFC0
07FFC0
07FFC0
07C7C0
07CFC0
07CF80
07CF80
07CF80
07CF80
07CF80
060F80
000480
ENDCHAR
STARTCHAR hbar
ENCODING 295
SWIDTH 704 0
DWIDTH 23 0
BBX 22 26 0 -2
BITMAP
03E7A0
FFC7FC
3FC7F8
1F87F0
1F87F0
1FFFF0
1FFFE0
1FFFE0
1FFFE0
0FFFE0
0F87C0
0F87C0
0F87C0
0FFFC0
07FF80
07FF80
07FF80
07C7C0
07CFC0
07CF80
07CF80
07CF80
07CF80
07CF80
060F80
000480
ENDCHAR
STARTCHAR Itilde
ENCODING 296
SWIDTH 401 0
DWIDTH 13 0
BBX 15 35 -2 -2
BITMAP
0020
3078
79FC
FFFC
7FFE
3FFC
1F18
0400
0000
1FF0
3FFC
1FF8
07F8
07F0
03F8
03F0
03F0
03F0
03F0
03F0
03F0
03E0
03F0
03F0
03F0
03E0
03E0
03E0
03E0
01E0
01E0
01E0
0160
0150
0040
ENDCHAR
STARTCHAR itilde
ENCODING 297
SWIDTH 411 0
DWIDTH 13 0
BBX 15 34 -2 -1
BITMAP
0020
3878
79FC
FFFE
7FFE
3FFC
1F18
0400
0000
0362
3FFC
0FFC
07F8
07F8
03F8
03F0
03F0
03F0
03F0
03F0
03E0
03E0
03E0
03F0
03F0
03E0
01E0
01E0
01E0
01E0
01E0
01E0
0160
0060
ENDCHAR
STARTCHAR Imacron
ENCODING 298
SWIDTH 401 0
DWIDTH 13 0
BBX 12 32 0 -2
BITMAP
7FF0
7FF0
7FE0
1FA0
0000
0000
7FC0
FFF0
7FE0
1FE0
1FC0
0FE0
0FC0
0FC0
0FC0
0FC0
0FC0
0FC0
0F80
0FC0
0FC0
0FC0
0F80
0F80
0F80
0F80
0780
0780
0780
0580
0540
0100
ENDCHAR
STARTCHAR imacron
ENCODING 299
SWIDTH 411 0
DWIDTH 13 0
BBX 13 31 0 -1
BITMAP
7FF0
7FF0
7FF0
1FB0
0000
0000
0D88
FFF0
3FF0
1FE0
1FE0
0FE0
0FC0
0FC0
0FC0
0FC0
0FC0
0F80
0F80
0F80
0FC0
0FC0
0F80
0780
0780
0780
0780
0780
0780
0580
0180
ENDCHAR
STARTCHAR Ibreve
ENCODING 300
SWIDTH 401 0
DWIDTH 13 0
BBX 13 37 0 -2
BITMAP
7800
7878
7878
3C78
3FF0
3FF0
1FE0
04E0
00A0
0000
0000
7FC0
FFF0
7FE0
1FE0
1FC0
0FE0
0FC0
0FC0
0FC0
0FC0
0FC0
0FC0
0F80
0FC0
0FC0
0FC0
0F80
0F80
0F80
0F80
0780
0780
0780
0580
0540
0100
ENDCHAR
STARTCHAR ibreve
ENCODING 301
SWIDTH 411 0
DWIDTH 13 0
BBX 13 36 0 -1
BITMAP
7800
7878
7878
38F8
3FF0
3FF0
2FE0
05E0
00A0
0000
0000
0D88
FFF0
3FF0
1FE0
1FE0
0FE0
0FC0
0FC0
0FC0
0FC0
0FC0
0F80
0F80
0F80
0FC0
0FC0
0F80
0780
0780
0780
0780
0780
0780
0580
0180
ENDCHAR
STARTCHAR Iogonek
ENCODING 302
SWIDTH 401 0
DWIDTH 13 0
BBX 12 36 0 -12
BITMAP
7FC0
FFF0
7FE0
1FE0
1FC0
0FE0
0FC0
0FC0
0FC0
1FC0
0FC0
0FC0
0F80
0FC0
0FC0
0FC0
0F80
0F80
0F80
0F80
0780
0780
0780
0780
07C0
0F00
0E00
0E00
0E00
0E00
0E00
0F00
0FF0
0FF0
07F0
03F0
ENDCHAR
STARTCHAR iogonek
ENCODING 303
SWIDTH 412 0
DWIDTH 13 0
BBX 13 36 0 -12
BITMAP
0D88
FFF0
3FF0
1FE0
1FE0
0FE0
0FC0
0FC0
0FC0
0FC0
0FC0
0F80
0F80
0F80
0FC0
0FC0
0F80
0780
0780
0780
0780
0780
0780
0780
0780
0F00
0F00
0E00
0E00
0E00
0E00
0F80
0FF0
07F0
07F0
01F0
ENDCHAR
STARTCHAR Idotaccent
ENCODING 304
SWIDTH 401 0
DWIDTH 13 0
BBX 12 38 0 -2
BITMAP
7FC0
3FC0
3FC0
3FC0
3FC0
3FC0
3FC0
3FC0
3FC0
1800
0000
0000
7FC0
FFF0
7FE0
1FE0
1FC0
0FE0
0FC0
0FC0
0FC0
0FC0
0FC0
0FC0
0F80
0FC0
0FC0
0FC0
0F80
0F80
0F80
0F80
0780
0780
0780
0580
0540
0100
ENDCHAR
STARTCHAR dotlessi
ENCODING 305
SWIDTH 411 0
DWIDTH 13 0
BBX 13 25 0 -1
BITMAP
0D88
FFF0
3FF0
1FE0
1FE0
0FE0
0FC0
0FC0
0FC0
0FC0
0FC0
0F80
0F80
0F80
0FC0
0FC0
0F80
0780
0780
0780
0780
0780
0780
0580
0180
ENDCHAR
STARTCHAR IJ
ENCODING 306
SWIDTH 908 0
DWIDTH 29 0
BBX 28 26 0 -2
BITMAP
7DE80000
FFF01FF0
7FF00FE0
1FE00FE0
1FE007E0
0FE007C0
0FE007C0
0FE007C0
0FE00FC0
0FE00FC0
0FC00FC0
0FC00F80
0FC00F80
0FC00F80
0FC00780
0FC02F80
0FC0CF80
0FC3CF80
0FC3CF00
07C3CF00
07C3CF00
07C3FF00
07C1FE00
05C0DE00
04C02A00
00800000
ENDCHAR
STARTCHAR ij
ENCODING 307
SWIDTH 901 0
DWIDTH 29 0
BBX 28 25 0 -1
BITMAP
0D803E00
FFF83FF0
3FF01FE0
1FE01FE0
1FE01FE0
0FE00FC0
0FE00FC0
0FE00FC0
0FC00FC0
0FC00FC0
0FC00FC0
0FC00FC0
0FC00FC0
0FC00FC0
0FC00F80
0FC00F80
07C0CF80
07C3CF80
07C3C780
07C3EF80
0783EF80
0781FF80
0781FF00
0780FF00
00C02D00
ENDCHAR
STARTCHAR Jcircumflex
ENCODING 308
SWIDTH 455 0
DWIDTH 15 0
BBX 17 37 -1 -1
BITMAP
01F800
03FC00
03FC00
07FE00
07FE00
0F9F00
0F1F00
1E0F80
1C0780
180300
000000
000000
000000
03FE00
03FC00
01F800
01F800
01F800
01F000
01F800
01F000
01F000
01F000
01F000
01F000
01F000
01F000
09E000
39E000
F9E000
F9E000
79E000
7BE000
7FC000
7FC000
3BC000
0B4000
ENDCHAR
STARTCHAR jcircumflex
ENCODING 309
SWIDTH 458 0
DWIDTH 15 0
BBX 17 37 -1 -1
BITMAP
01F800
03FC00
03FC00
07FE00
07FE00
0F9F00
0F1F00
0E0F80
1C0780
180300
000000
000000
078000
07FE00
03FC00
03FC00
03FC00
01F800
01F800
01F800
01F800
01F800
01F800
01F800
01F800
01F800
01F000
01F000
39F000
F9F000
78F000
7DF000
7DF000
7FF000
3FE000
1FE000
05A000
ENDCHAR
STARTCHAR Kcommaaccent
ENCODING 310
SWIDTH 580 0
DWIDTH 19 0
BBX 18 42 0 -18
BITMAP
0A9800
FF9FC0
3F9F80
3F9F00
1FBE00
1FBC00
0FB800
0FB800
0FF800
0FF800
07F800
0FF800
0FF800
07F800
07F800
07F800
07F800
07F800
07F800
07BC00
07BC00
039C00
039C00
039C00
029A00
004200
000000
000000
01FC00
01FC00
01FC00
03FC00
03FC00
03FC00
03FC00
03FC00
001C00
001C00
003C00
003C00
003800
003800
ENDCHAR
STARTCHAR kcommaaccent
ENCODING 311
SWIDTH 636 0
DWIDTH 20 0
BBX 20 41 0 -17
BITMAP
014B80
BFCFF0
7FCFC0
1FCF80
1FDF00
1FDE00
0FDE00
0FDE00
07DC00
07DC00
07DC00
07F800
07F800
07F800
07F800
07F800
03F800
03FC00
03DC00
03DC00
03DE00
03CE00
03CF00
03CF00
014D80
000000
000000
00FE00
00FE00
01FE00
01FE00
01FE00
01FE00
01FE00
01FE00
000E00
000E00
001E00
001C00
001C00
001C00
ENDCHAR
STARTCHAR kgreenlandic
ENCODING 312
SWIDTH 636 0
DWIDTH 20 0
BBX 20 25 0 -1
BITMAP
014B80
BFCFF0
7FCFC0
1FCF80
1FDF00
1FDE00
0FDE00
0FDE00
07DC00
07DC00
07DC00
07F800
07F800
07F800
07F800
07F800
03F800
03FC00
03DC00
03DC00
03DE00
03CE00
03CF00
03CF00
014D80
ENDCHAR
STARTCHAR Lacute
ENCODING 313
SWIDTH 416 0
DWIDTH 13 0
BBX 17 35 0 -2
BITMAP
000600
000E00
001E00
003F00
00FF80
01FE00
01E000
010000
000000
FF7000
7FE000
3F8000
3F8000
3F8000
3F8000
1F8000
1F8000
1F8000
1F8000
1F0000
1F8000
1F8000
1F8000
1F8000
1F8000
0F8000
0F0000
0F8000
0F8200
0FFC00
0FFC00
0FFC00
07FC00
04D800
04D800
ENDCHAR
STARTCHAR lacute
ENCODING 314
SWIDTH 438 0
DWIDTH 14 0
BBX 18 36 0 -2
BITMAP
000200
000F00
001F00
003F80
007FC0
00FE00
01F000
008000
000000
000000
07F800
FFF000
3FE000
1FC000
1F8000
1FC000
1FC000
1FC000
1F8000
1FC000
0FC000
0FC000
0FC000
0F8000
0F8000
0F8000
078000
0FC000
078000
07E000
07FE00
07FC00
07FC00
07BC00
063C00
020800
ENDCHAR
STARTCHAR Lcommaaccent
ENCODING 315
SWIDTH 416 0
DWIDTH 13 0
BBX 14 43 0 -19
BITMAP
FF70
7FE0
3F80
3F80
3F80
3F80
1F80
1F80
1F80
1F80
1F00
1F80
1F80
1F80
1F80
1F80
0F80
0F00
0F80
0F84
0FFC
0FFC
0FFC
07FC
04D8
04D8
0000
0000
0000
0FE0
0FE0
0FE0
0FE0
0FE0
0FE0
0FE0
0FE0
00E0
00E0
00E0
01E0
01E0
01C0
ENDCHAR
STARTCHAR lcommaaccent
ENCODING 316
SWIDTH 438 0
DWIDTH 14 0
BBX 15 42 0 -18
BITMAP
07F8
FFF0
3FE0
1FC0
1F80
1FC0
1FC0
1FC0
1F80
1FC0
0FC0
0FC0
0FC0
0F80
0F80
0F80
0780
0FC0
0780
07E0
07FE
07FC
07FC
07BC
063C
0208
0000
0000
0FF0
0FF0
0FF0
0FF0
0FF0
0FF0
0FF0
0FF0
00F0
00F0
00E0
00E0
00E0
00E0
ENDCHAR
STARTCHAR Lcaron
ENCODING 317
SWIDTH 714 0
DWIDTH 23 0
BBX 22 26 0 -2
BITMAP
FF77F8
7FE7F8
3F87FC
3F87FC
3F87FC
3F87FC
1F87FC
1F87FC
1F87FC
1F827C
1F0038
1F8038
1F8038
1F8038
1F8038
1F8038
0F8000
0F0000
0F8000
0F8200
0FFC00
0FFC00
0FFC00
07FC00
04B800
04D800
ENDCHAR
STARTCHAR lcaron
ENCODING 318
SWIDTH 782 0
DWIDTH 25 0
BBX 24 26 0 -2
BITMAP
07F8FF
FFF0FF
3FE0FF
1FC0FF
1F80FF
1FC1FF
1FC1FF
1FC1FF
1F81FF
1FC09F
0FC00F
0FC00E
0FC00E
0F800E
0F800E
0F800E
078000
0FC000
078000
07E000
07FE00
07FC00
07FC00
07BC00
063C00
020800
ENDCHAR
STARTCHAR Ldotaccent
ENCODING 319
SWIDTH 567 0
DWIDTH 18 0
BBX 20 26 0 -2
BITMAP
FF7000
7FE000
3F8000
3F8000
3F8000
3F8FF0
1FBFF0
1F9FF0
1F9FE0
1F8FF0
1F0FF0
1F8FF0
1F8FF0
1F8FE0
1F8F20
1F8000
0F8000
0F0000
0F8000
0F8200
0FFC00
0FFC00
0FFC00
07FC00
04D800
04D800
ENDCHAR
STARTCHAR ldot
ENCODING 320
SWIDTH 660 0
DWIDTH 21 0
BBX 22 26 0 -2
BITMAP
07F800
FFF000
3FE000
1FC000
1F8000
1FC000
1FC000
1FC3FC
1F87FC
1FC3FC
0FC3FC
0FC3FC
0FC3FC
0F83FC
0F83FC
0F83FC
078380
0FC000
078000
07E000
07FE00
07FC00
07FC00
07BC00
063C00
020800
ENDCHAR
STARTCHAR Lslash
ENCODING 321
SWIDTH 428 0
DWIDTH 14 0
BBX 15 26 0 -2
BITMAP
BF70
7FE0
3F80
1F80
3F80
1F80
1F84
1F9C
1FFC
1FFC
1FFC
7FFE
FFFE
7FF0
7F80
3F80
2F80
0F00
0F80
0F82
0FFC
07FC
07FC
07F8
04D8
04D8
ENDCHAR
STARTCHAR lslash
ENCODING 322
SWIDTH 457 0
DWIDTH 15 0
BBX 15 26 1 -2
BITMAP
0EF8
FFE0
7FC0
3F80
3F80
3F80
1F8C
3FBC
1FFC
1FFC
1FFE
7FFE
FFF8
FFE0
7F80
7F80
7F80
0F80
0F80
0FC0
0FFC
0FFC
07F8
07F8
0438
0410
ENDCHAR
STARTCHAR Nacute
ENCODING 323
SWIDTH 610 0
DWIDTH 20 0
BBX 20 38 1 -5
BITMAP
000080
0003C0
0007C0
000FE0
001FF0
007F80
007C00
002000
000000
012000
FF3FC0
FF3F80
7F1F00
3F9E00
3F9E00
3F9E00
3FDE00
3FFE00
3FFE00
3FFE00
3FFE00
3FFE00
1FFC00
1FFC00
1FFC00
1EFC00
1EFC00
0EFC00
0E7C00
0E7C00
0E7C00
0E7C00
0F3C00
0F3C00
0D3800
093800
092000
092000
ENDCHAR
STARTCHAR nacute
ENCODING 324
SWIDTH 664 0
DWIDTH 21 0
BBX 22 36 0 -3
BITMAP
000060
0000F0
0001F0
0003F8
0007FC
001FE0
001F00
000800
000000
87C800
7FCFF8
3FC7F0
3FC7E0
1FE7E0
3FE7C0
1FE7C0
1FF7C0
1FFFC0
1FFFC0
1FFFC0
1FFF80
1FFF80
1FFF80
1FFF80
0FFF80
0F7F80
0F7F00
0F7F00
0F3F00
0F3F00
0F3F00
073E00
071E00
071E00
069E00
001400
ENDCHAR
STARTCHAR Ncommaaccent
ENCODING 325
SWIDTH 610 0
DWIDTH 20 0
BBX 18 45 1 -21
BITMAP
012000
FF3FC0
FF3F80
7F1F00
3F9E00
3F9E00
3F9E00
3FDE00
3FFE00
3FFE00
3FFE00
3FFE00
3FFE00
1FFC00
1FFC00
1FFC00
1EFC00
1EFC00
0EFC00
0E7C00
0E7C00
0E7C00
0E7C00
0F3C00
0F3C00
0D3800
093800
092000
092000
000000
000000
01FC00
03FC00
03FC00
03FC00
03FC00
03FC00
03FC00
03FC00
001C00
001C00
003C00
003800
003800
003800
ENDCHAR
STARTCHAR ncommaaccent
ENCODING 326
SWIDTH 664 0
DWIDTH 21 0
BBX 21 44 0 -20
BITMAP
87C800
7FCFF8
3FC7F0
3FC7E0
1FE7E0
3FE7C0
1FE7C0
1FF7C0
1FFFC0
1FFFC0
1FFFC0
1FFF80
1FFF80
1FFF80
1FFF80
0FFF80
0F7F80
0F7F00
0F7F00
0F3F00
0F3F00
0F3F00
073E00
071E00
071E00
069E00
001400
000000
000000
000000
00FF00
00FF00
00FF00
00FF00
00FF00
00FF00
00FF00
00FF00
000700
000F00
000E00
000E00
000E00
000E00
ENDCHAR
STARTCHAR Ncaron
ENCODING 327
SWIDTH 610 0
DWIDTH 20 0
BBX 18 42 1 -5
BITMAP
080400
3C0E00
3E0F00
1E1F00
1F3E00
0F3E00
0FFC00
0FFC00
07F800
07F800
03F000
000000
000000
012000
FF3FC0
FF3F80
7F1F00
3F9E00
3F9E00
3F9E00
3FDE00
3FFE00
3FFE00
3FFE00
3FFE00
3FFE00
1FFC00
1FFC00
1FFC00
1EFC00
1EFC00
0EFC00
0E7C00
0E7C00
0E7C00
0E7C00
0F3C00
0F3C00
0D3800
093800
092000
092000
ENDCHAR
STARTCHAR ncaron
ENCODING 328
SWIDTH 664 0
DWIDTH 21 0
BBX 21 40 0 -3
BITMAP
020180
0F01C0
0783E0
07C7C0
07C7C0
03EF80
03FF80
01FF00
01FF00
00FE00
00FE00
000000
000000
87C800
7FCFF8
3FC7F0
3FC7E0
1FE7E0
3FE7C0
1FE7C0
1FF7C0
1FFFC0
1FFFC0
1FFFC0
1FFF80
1FFF80
1FFF80
1FFF80
0FFF80
0F7F80
0F7F00
0F7F00
0F3F00
0F3F00
0F3F00
073E00
071E00
071E00
069E00
001400
ENDCHAR
STARTCHAR Omacron
ENCODING 332
SWIDTH 504 0
DWIDTH 16 0
BBX 14 32 1 -3
BITMAP
7FF0
7FF0
7FF0
1DB0
0000
0380
1FE0
3FF8
7FFC
FFFC
FFFC
FFFC
FFFC
FFFC
FFFC
FFFC
FCFC
7CFC
7CFC
787C
7C7C
7C7C
7C78
3CF8
3CF8
3EF8
3FF0
3FF0
1FE0
04E0
04A0
0080
ENDCHAR
STARTCHAR omacron
ENCODING 333
SWIDTH 545 0
DWIDTH 17 0
BBX 16 32 1 -2
BITMAP
3FF8
3FF8
3FF8
0ED8
0000
0000
01A0
1FF0
3FFC
7FFC
7FFE
FFFF
FFFF
FFFF
FFFF
FFFF
FEFF
7E7F
7C7F
7C7E
7C7E
7C7E
7C7E
7C7C
3C7C
3E7C
3EF8
3FFC
1FF8
17F0
02F0
00D0
ENDCHAR
STARTCHAR Obreve
ENCODING 334
SWIDTH 504 0
DWIDTH 16 0
BBX 14 38 1 -3
BITMAP
3C00
3C3C
3C3C
3C78
3FFC
1FF8
17F0
02F0
00D0
0000
0000
0380
1FE0
3FF8
7FFC
FFFC
FFFC
FFFC
FFFC
FFFC
FFFC
FFFC
FCFC
7CFC
7CFC
787C
7C7C
7C7C
7C78
3CF8
3CF8
3EF8
3FF0
3FF0
1FE0
04E0
04A0
0080
ENDCHAR
STARTCHAR obreve
ENCODING 335
SWIDTH 545 0
DWIDTH 17 0
BBX 16 37 1 -2
BITMAP
3C00
3C3C
3C3C
1E3C
1FF8
1FF8
0FF0
0270
0050
0000
0000
01A0
1FF0
3FFC
7FFC
7FFE
FFFF
FFFF
FFFF
FFFF
FFFF
FEFF
7E7F
7C7F
7C7E
7C7E
7C7E
7C7E
7C7C
3C7C
3E7C
3EF8
3FFC
1FF8
17F0
02F0
00D0
ENDCHAR
STARTCHAR Ohungarumlaut
ENCODING 336
SWIDTH 504 0
DWIDTH 16 0
BBX 16 39 1 -3
BITMAP
1830
1C3C
1E3F
3F7E
3C7C
7C78
78F0
F0E0
E1C0
C080
0000
0000
0380
1FE0
3FF8
7FFC
FFFC
FFFC
FFFC
FFFC
FFFC
FFFC
FFFC
FCFC
7CFC
7CFC
787C
7C7C
7C7C
7C78
3CF8
3CF8
3EF8
3FF0
3FF0
1FE0
04E0
04A0
0080
ENDCHAR
STARTCHAR ohungarumlaut
ENCODING 337
SWIDTH 545 0
DWIDTH 17 0
BBX 16 38 1 -2
BITMAP
0C18
0E1E
1F3F
1F3E
3E3C
3C7C
3878
70F0
70E0
60C0
0000
0000
01A0
1FF0
3FFC
7FFC
7FFE
FFFF
FFFF
FFFF
FFFF
FFFF
FEFF
7E7F
7C7F
7C7E
7C7E
7C7E
7C7E
7C7C
3C7C
3E7C
3EF8
3FFC
1FF8
17F0
02F0
00D0
ENDCHAR
STARTCHAR OE
ENCODING 338
SWIDTH 789 0
DWIDTH 25 0
BBX 23 29 1 -5
BITMAP
038380
1FFFFE
3FFFFE
7FFFFC
FFFFFC
FFFFF8
FFFFF8
FFFFF8
FFFFF0
FFFFF0
FFFDF0
FCFC10
7CFC00
7CFDC0
787FE0
7C7FE0
7C7FC0
7C7FC0
7CFC00
3CFC00
3EFFE0
3FFFE0
3FFFE0
1FE7E0
04E720
04A420
04A440
04A440
000440
ENDCHAR
STARTCHAR oe
ENCODING 339
SWIDTH 778 0
DWIDTH 25 0
BBX 23 27 1 -3
BITMAP
034000
1FFFFE
3FFFFC
7FFFFC
7FFFF8
FFFFF8
FFFFF0
FFFFF0
FFFFF0
FFFFF0
7EFFF0
7CFE70
7C7E00
7C7E00
7C7FC0
7C7FC0
3C7FC0
3C7FC0
3CFFC0
3CFC00
3EFC00
3FFFE0
1FFFC0
17FFC0
04F7C0
00A440
000020
ENDCHAR
STARTCHAR Racute
ENCODING 340
SWIDTH 599 0
DWIDTH 19 0
BBX 19 35 1 -2
BITMAP
000180
000380
000780
000FC0
003FE0
007F80
007800
004000
000000
07C000
7FFC00
FFFF00
7FFF80
3FFF80
3FFF80
1FFF80
1FFF80
1FFF80
1FFF80
1F9F80
1F8F80
1F8F80
0F9F80
0FFF00
0FFF00
07FF00
07FE00
07BE00
079E00
079E00
079E00
079E00
079F00
075F00
014B00
ENDCHAR
STARTCHAR racute
ENCODING 341
SWIDTH 616 0
DWIDTH 20 0
BBX 20 36 1 -3
BITMAP
000180
0003C0
0007C0
000FE0
001FF0
007F80
007C00
002000
000000
029000
FFFE00
FFFF80
7FFFC0
3FFFC0
1FFFC0
1FFFC0
1FFFC0
1FFFC0
1FFF80
1FDF80
0F8F80
0F8F80
0F8F80
1FFF80
0FFF00
0FFF00
0FFF00
0FFC00
0FBE00
0FBE00
0FBE00
0F9E00
0FBE00
0F9E00
081600
000200
ENDCHAR
STARTCHAR Rcommaaccent
ENCODING 342
SWIDTH 599 0
DWIDTH 19 0
BBX 17 42 1 -18
BITMAP
07C000
7FFC00
FFFF00
7FFF80
3FFF80
3FFF80
1FFF80
1FFF80
1FFF80
1FFF80
1F9F80
1F8F80
1F8F80
0F9F80
0FFF00
0FFF00
07FF00
07FE00
07BE00
079E00
079E00
079E00
079E00
079F00
075F00
014B00
000000
000000
03F800
03F800
03F800
03F800
03F800
03F800
03F800
03F800
003800
003800
003800
007800
007800
007000
ENDCHAR
STARTCHAR rcommaaccent
ENCODING 343
SWIDTH 616 0
DWIDTH 20 0
BBX 18 43 1 -19
BITMAP
029000
FFFE00
FFFF80
7FFFC0
3FFFC0
1FFFC0
1FFFC0
1FFFC0
1FFFC0
1FFF80
1FDF80
0F8F80
0F8F80
0F8F80
1FFF80
0FFF00
0FFF00
0FFF00
0FFC00
0FBE00
0FBE00
0FBE00
0F9E00
0FBE00
0F9E00
081600
000200
000000
000000
03FC00
03FC00
03FC00
03FC00
03FC00
03FC00
03FC00
03FC00
003C00
003C00
003800
003800
003800
003800
ENDCHAR
STARTCHAR Rcaron
ENCODING 344
SWIDTH 599 0
DWIDTH 19 0
BBX 17 39 1 -2
BITMAP
0C0200
1E0700
1E0F80
1F0F80
0F1F00
0FBE00
07FE00
07FC00
03FC00
03F800
03F800
000000
000000
07C000
7FFC00
FFFF00
7FFF80
3FFF80
3FFF80
1FFF80
1FFF80
1FFF80
1FFF80
1F9F80
1F8F80
1F8F80
0F9F80
0FFF00
0FFF00
07FF00
07FE00
07BE00
079E00
079E00
079E00
079E00
079F00
075F00
014B00
ENDCHAR
STARTCHAR rcaron
ENCODING 345
SWIDTH 616 0
DWIDTH 20 0
BBX 18 40 1 -3
BITMAP
0C0200
3E0700
1E0F80
1F1F00
0F1F00
0FBE00
07FE00
07FC00
07FC00
03F800
03F800
000000
000000
029000
FFFE00
FFFF80
7FFFC0
3FFFC0
1FFFC0
1FFFC0
1FFFC0
1FFFC0
1FFF80
1FDF80
0F8F80
0F8F80
0F8F80
1FFF80
0FFF00
0FFF00
0FFF00
0FFC00
0FBE00
0FBE00
0FBE00
0F9E00
0FBE00
0F9E00
081600
000200
ENDCHAR
STARTCHAR Sacute
ENCODING 346
SWIDTH 504 0
DWIDTH 16 0
BBX 18 36 1 -3
BITMAP
000600
000F00
001F00
003F80
007FC0
01FE00
01F000
010000
000000
018000
0FE000
3FF800
7FFC00
7FFE00
7FFC00
FFFC00
FFFC00
FFFC00
FFFC00
FEFC00
FCFC00
FC7C00
FF0000
7FE000
7FF000
1FF800
07F800
00F800
7CF800
FCF800
7FF800
3FF000
3FF000
1FA000
04A000
008000
ENDCHAR
STARTCHAR sacute
ENCODING 347
SWIDTH 481 0
DWIDTH 15 0
BBX 18 35 1 -2
BITMAP
000600
000E00
001E00
003F00
00FFC0
01FE00
01E000
010000
000000
030000
1FE000
3FF000
7FF800
7FFC00
FFFC00
FFF800
FFF800
FFF800
FFF800
FFF800
FCF800
FCF800
FE0800
7FC000
7FE000
3FE000
1FF000
01F000
04F000
7CF000
7FF000
3FE000
3FC000
1FC000
080000
ENDCHAR
STARTCHAR Scircumflex
ENCODING 348
SWIDTH 504 0
DWIDTH 16 0
BBX 15 39 1 -3
BITMAP
07E0
0FF0
0FF0
1FF8
1FF8
3E7C
3C3C
383E
701E
600C
0000
0000
0180
0FE0
3FF8
7FFC
7FFE
7FFC
FFFC
FFFC
FFFC
FFFC
FEFC
FCFC
FC7C
FF00
7FE0
7FF0
1FF8
07F8
00F8
7CF8
FCF8
7FF8
3FF0
3FF0
1FA0
04A0
0080
ENDCHAR
STARTCHAR scircumflex
ENCODING 349
SWIDTH 481 0
DWIDTH 15 0
BBX 15 38 1 -2
BITMAP
0FE0
0FE0
1FF0
1FF0
3FF8
3CF8
7C7C
783C
701E
E00C
0000
0000
0300
1FE0
3FF0
7FF8
7FFC
FFFC
FFF8
FFF8
FFF8
FFF8
FFF8
FCF8
FCF8
FE08
7FC0
7FE0
3FE0
1FF0
01F0
04F0
7CF0
7FF0
3FE0
3FC0
1FC0
0800
ENDCHAR
STARTCHAR Scedilla
ENCODING 350
SWIDTH 504 0
DWIDTH 16 0
BBX 15 35 1 -11
BITMAP
0180
0FE0
3FF8
7FFC
7FFE
7FFC
FFFC
FFFC
FFFC
FFFC
FEFC
FCFC
FC7C
FF00
7FE0
7FF0
1FF8
07F8
00F8
7CF8
FCF8
7FF8
3FF0
3FF0
1FA0
05A0
0380
0300
03F0
03F0
0070
0060
01E0
03E0
0660
ENDCHAR
STARTCHAR scedilla
ENCODING 351
SWIDTH 481 0
DWIDTH 15 0
BBX 14 36 1 -12
BITMAP
0300
1FE0
3FF0
7FF8
7FFC
FFFC
FFF8
FFF8
FFF8
FFF8
FFF8
FCF8
FCF8
FE08
7FC0
7FE0
3FE0
1FF0
01F0
04F0
7CF0
7FF0
3FE0
3FC0
1FC0
0B00
0700
0700
0600
07C0
07C0
00C0
00C0
03C0
07C0
0DC0
ENDCHAR
STARTCHAR Scaron
ENCODING 352
SWIDTH 503 0
DWIDTH 16 0
BBX 15 44 1 -3
BITMAP
2010
7018
F03C
787E
7C7C
3CF8
3EF8
3FF0
1FF0
1FE0
0FE0
0FC0
0000
0000
0000
0000
0000
0180
0FE0
3FF8
7FFC
7FFE
7FFC
FFFC
FFFC
FFFC
FFFC
FFFC
FCFC
FCFC
FF00
7FE0
7FF0
1FF8
07F8
00F8
7CF8
FCF8
7FF0
3FF0
3FF0
1FA0
04A0
0080
ENDCHAR
STARTCHAR scaron
ENCODING 353
SWIDTH 479 0
DWIDTH 15 0
BBX 14 42 1 -2
BITMAP
6010
F038
F87C
787C
7CF8
7DF8
3FF0
3FE0
1FE0
1FC0
0FC0
0000
0000
0000
0000
0000
0300
1FE0
3FF0
7FF8
7FFC
FFF8
FFF8
FFF8
FFF8
FFF8
FFF8
FCF8
FCF8
FC08
7FC0
7FE0
3FE0
1FF0
01F0
04F0
7CF0
7FE0
3FE0
3FC0
1FC0
0800
ENDCHAR
STARTCHAR Tcommaaccent
ENCODING 354
SWIDTH 622 0
DWIDTH 20 0
BBX 18 36 1 -13
BITMAP
FFFF00
7FFFC0
7FFF80
3FFF00
3FFF80
3FFF00
3FFF00
3FFF00
3FFF00
3FFF00
3FF300
21F100
01F000
01F000
01F000
01F000
01F000
01F000
01F000
01F000
01F000
01F000
01F000
01F000
01F000
01F000
01E000
00C000
00C000
01F800
01F800
003800
001800
00F800
01F800
00B800
ENDCHAR
STARTCHAR tcommaaccent
ENCODING 355
SWIDTH 683 0
DWIDTH 22 0
BBX 20 37 1 -13
BITMAP
03FE00
7FFFF0
FFFFE0
7FFFE0
7FFFC0
3FFFC0
3FFFC0
3FFFC0
1FFFC0
1FFFC0
1FFF80
1CF980
10F800
00F800
00F800
00F800
00F800
00F800
00F800
00F800
00F800
007800
007800
007800
007800
007800
007800
003800
007800
006000
007C00
007E00
000C00
000C00
003C00
007C00
00CC00
ENDCHAR
STARTCHAR Tcaron
ENCODING 356
SWIDTH 622 0
DWIDTH 20 0
BBX 18 41 1 -4
BITMAP
080400
3C0E00
3E1F00
1E1F00
1F3E00
1F3E00
0FFC00
0FFC00
07F800
07F800
03F000
000000
000000
000000
FFFF00
7FFFC0
7FFF80
3FFF00
3FFF80
3FFF00
3FFF00
3FFF00
3FFF00
3FFF00
3FF300
21F100
01F000
01F000
01F000
01F000
01F000
01F000
01F000
01F000
01F000
01F000
01F000
01F000
01F000
01D000
010000
ENDCHAR
STARTCHAR tcaron
ENCODING 357
SWIDTH 622 0
DWIDTH 20 0
BBX 18 41 1 -4
BITMAP
0C0200
1E0700
1E0F80
1F0F00
0F1F00
0FBE00
07FE00
07FC00
03FC00
03F800
03F800
000000
000000
000000
FFFF00
7FFFC0
7FFF80
3FFF00
3FFF80
3FFF00
3FFF00
3FFF00
3FFF00
3FFF00
3FF300
21F100
01F000
01F000
01F000
01F000
01F000
01F000
01F000
01F000
01F000
01F000
01F000
01F000
01F000
01D000
010000
ENDCHAR
STARTCHAR Utilde
ENCODING 360
SWIDTH 637 0
DWIDTH 20 0
BBX 20 35 0 -2
BITMAP
000800
0C1E00
1E7F00
3FFF80
1FFF80
0FFF00
07C600
010000
000000
079000
FF8FC0
3F8FF0
1F9FC0
1F8FC0
1F8FC0
1F8FC0
1F8F80
1F8F80
1F8F80
1F8F00
0F8F00
0F9F00
0F9F00
0F9F00
0F9F00
0F9F00
0F9F00
0F9F00
0F9E00
07FE00
07FE00
07BC00
03A800
032800
000800
ENDCHAR
STARTCHAR utilde
ENCODING 361
SWIDTH 708 0
DWIDTH 23 0
BBX 23 33 0 0
BITMAP
000400
070F00
0F3F80
1FFFC0
0FFFC0
07FF80
03E300
008000
000000
03C400
FFC3E0
3FC3FE
1FC7FC
1FC7F8
1FC7F8
1FC3F0
1FC3F0
0FE7E0
0FE7E0
0FE7E0
0FE7E0
0FC7E0
0FC7E0
07C7C0
0FC7C0
07E7C0
07E7C0
07EFC0
03EFC0
03FF80
03FFC0
03FF80
00EB00
ENDCHAR
STARTCHAR Umacron
ENCODING 362
SWIDTH 637 0
DWIDTH 20 0
BBX 20 32 0 -2
BITMAP
07FF00
07FF00
07FE00
01FA00
000000
000000
079000
FF8FC0
3F8FF0
1F9FC0
1F8FC0
1F8FC0
1F8FC0
1F8F80
1F8F80
1F8F80
1F8F00
0F8F00
0F9F00
0F9F00
0F9F00
0F9F00
0F9F00
0F9F00
0F9F00
0F9E00
07FE00
07FE00
07BC00
03A800
032800
000800
ENDCHAR
STARTCHAR umacron
ENCODING 363
SWIDTH 708 0
DWIDTH 23 0
BBX 23 30 0 0
BITMAP
03FF80
03FF80
03FF80
00FD80
000000
000000
03C400
FFC3E0
3FC3FE
1FC7FC
1FC7F8
1FC7F8
1FC3F0
1FC3F0
0FE7E0
0FE7E0
0FE7E0
0FE7E0
0FC7E0
0FC7E0
07C7C0
0FC7C0
07E7C0
07E7C0
07EFC0
03EFC0
03FF80
03FFC0
03FF80
00EB00
ENDCHAR
STARTCHAR Ubreve
ENCODING 364
SWIDTH 637 0
DWIDTH 20 0
BBX 20 37 0 -2
BITMAP
078000
078780
038780
03C780
03FF80
03FF00
01FE00
004E00
000A00
000000
000000
079000
FF8FC0
3F8FF0
1F9FC0
1F8FC0
1F8FC0
1F8FC0
1F8F80
1F8F80
1F8F80
1F8F00
0F8F00
0F9F00
0F9F00
0F9F00
0F9F00
0F9F00
0F9F00
0F9F00
0F9E00
07FE00
07FE00
07BC00
03A800
032800
000800
ENDCHAR
STARTCHAR ubreve
ENCODING 365
SWIDTH 708 0
DWIDTH 23 0
BBX 23 35 0 0
BITMAP
03C000
01C1E0
01C3C0
01E3C0
01FFC0
00FF80
00BF80
002700
000480
000000
000000
03C400
FFC3E0
3FC3FE
1FC7FC
1FC7F8
1FC7F8
1FC3F0
1FC3F0
0FE7E0
0FE7E0
0FE7E0
0FE7E0
0FC7E0
0FC7E0
07C7C0
0FC7C0
07E7C0
07E7C0
07EFC0
03EFC0
03FF80
03FFC0
03FF80
00EB00
ENDCHAR
STARTCHAR Uring
ENCODING 366
SWIDTH 637 0
DWIDTH 20 0
BBX 20 37 0 -2
BITMAP
00F800
01FC00
03DE00
038E00
018600
018C00
01FC00
01F800
003000
000000
000000
079000
FF8FC0
3F8FF0
1F9FC0
1F8FC0
1F8FC0
1F8FC0
1F8F80
1F8F80
1F8F80
1F8F00
0F8F00
0F9F00
0F9F00
0F9F00
0F9F00
0F9F00
0F9F00
0F9F00
0F9E00
07FE00
07FE00
07BC00
03A800
032800
000800
ENDCHAR
STARTCHAR uring
ENCODING 367
SWIDTH 708 0
DWIDTH 23 0
BBX 23 35 0 0
BITMAP
007E00
00FF00
00F700
00C300
00C380
00E300
007E00
007E00
001800
000000
000000
03C400
FFC3E0
3FC3FE
1FC7FC
1FC7F8
1FC7F8
1FC3F0
1FC3F0
0FE7E0
0FE7E0
0FE7E0
0FE7E0
0FC7E0
0FC7E0
07C7C0
0FC7C0
07E7C0
07E7C0
07EFC0
03EFC0
03FF80
03FFC0
03FF80
00EB00
ENDCHAR
STARTCHAR Uhungarumlaut
ENCODING 368
SWIDTH 637 0
DWIDTH 20 0
BBX 20 38 0 -2
BITMAP
018300
03C3C0
03E7E0
03E7C0
07CF80
078F00
0F0E00
0E1C00
1C1800
081800
000000
000000
079000
FF8FC0
3F8FF0
1F9FC0
1F8FC0
1F8FC0
1F8FC0
1F8F80
1F8F80
1F8F80
1F8F00
0F8F00
0F9F00
0F9F00
0F9F00
0F9F00
0F9F00
0F9F00
0F9F00
0F9E00
07FE00
07FE00
07BC00
03A800
032800
000800
ENDCHAR
STARTCHAR uhungarumlaut
ENCODING 369
SWIDTH 708 0
DWIDTH 23 0
BBX 23 36 0 0
BITMAP
00C180
00E1E0
01F3F0
01F3E0
03E3C0
03C780
038780
070F00
0F0E00
060C00
000000
000000
03C400
FFC3E0
3FC3FE
1FC7FC
1FC7F8
1FC7F8
1FC3F0
1FC3F0
0FE7E0
0FE7E0
0FE7E0
0FE7E0
0FC7E0
0FC7E0
07C7C0
0FC7C0
07E7C0
07E7C0
07EFC0
03EFC0
03FF80
03FFC0
03FF80
00EB00
ENDCHAR
STARTCHAR Uogonek
ENCODING 370
SWIDTH 637 0
DWIDTH 20 0
BBX 20 34 0 -10
BITMAP
079000
FF8FC0
3F8FF0
1F9FC0
1F8FC0
1F8FC0
1F8FC0
1F8F80
1F8F80
1F8F80
1F8F00
0F8F00
0F9F00
0F9F00
0F9F00
0F9F00
0F9F00
0F9F00
0F9F00
0F9E00
07FE00
07FE00
07BC00
03B800
033800
003800
007800
007000
007800
007800
003FC0
003FC0
001F80
000F80
ENDCHAR
STARTCHAR uogonek
ENCODING 371
SWIDTH 662 0
DWIDTH 21 0
BBX 23 33 0 -9
BITMAP
03C000
FFC7E0
3FC7FE
1FC7FC
1FC7F8
1FC7F8
1FC7F0
1FC7F0
0FC7E0
0FC7E0
0FC7E0
0FC7E0
0FC7E0
0FC7C0
0FC7C0
0FC7C0
0FC7C0
07E7C0
07EFC0
03EFC0
03FF80
03FF80
03FF80
00FF00
007000
007000
007000
007000
007800
007F80
007F80
003F80
001F80
ENDCHAR
STARTCHAR Wcircumflex
ENCODING 372
SWIDTH 777 0
DWIDTH 25 0
BBX 25 38 0 -1
BITMAP
007E0000
00FF0000
00FF0000
00FF8000
01FF8000
01E7C000
03C3C000
03C1E000
0780F000
0300E000
00000000
00000000
00000000
001C6000
0F9C7E00
FF9C7F80
3FBE7E00
1FBEFC00
0FBEF800
0FBEF800
07BFF000
07FFF000
07FFE000
07FFE000
03FFE000
03FFC000
01FFE000
01FFC000
01FFC000
01F7C000
00F7C000
00F7C000
00F78000
00F78000
00770000
00770000
00770000
00100000
ENDCHAR
STARTCHAR wcircumflex
ENCODING 373
SWIDTH 704 0
DWIDTH 23 0
BBX 23 36 0 0
BITMAP
00FE00
00FE00
01FF00
01FF00
03FF80
03CF80
07C7C0
0783C0
0F01E0
0600C0
000000
000000
003900
3F38F0
FF38FE
3F39F8
1F3DF0
1F7DF0
0FFDE0
0FFDE0
0FFFE0
07FFC0
07FFC0
03FFC0
03FFC0
03FFC0
01FF80
01FF80
01FF80
01F780
00F780
00F780
00F780
00E780
007780
004700
ENDCHAR
STARTCHAR Ycircumflex
ENCODING 374
SWIDTH 688 0
DWIDTH 22 0
BBX 23 37 0 -1
BITMAP
00FC00
01FE00
01FE00
03FF00
03FF00
03CF80
078780
0703C0
0E03C0
0E0180
000000
000000
0B8200
FFC3F0
3FC7FE
0FE7F8
07E7E0
03FFC0
01FFC0
00FF80
00FF00
007F00
007F00
007F00
003F00
003F00
003F00
001F00
001E00
001E00
001E00
001E00
001E00
001E00
001E00
001E00
000E00
ENDCHAR
STARTCHAR ycircumflex
ENCODING 375
SWIDTH 604 0
DWIDTH 19 0
BBX 19 38 0 -2
BITMAP
03F800
03F800
07FC00
07FC00
0FFE00
0F3E00
0F1F00
1E0F00
1C0780
380300
000000
000000
0A0800
FF0F80
3F9FE0
0F9F80
079F00
07FF00
03FE00
01FC00
01FC00
01F800
01F800
01F800
00F800
00F800
00F800
00F800
00F800
00F800
00F800
00F800
00F800
00F800
00F000
00F000
00F000
005000
ENDCHAR
STARTCHAR Ydieresis
ENCODING 376
SWIDTH 688 0
DWIDTH 22 0
BBX 23 34 0 -1
BITMAP
0FCFE0
0FC7E0
0FC7E0
0FC7E0
0FC7E0
0FC7E0
0FC7E0
000000
000000
0B8200
FFC3F0
3FC7FE
0FE7F8
07E7E0
03FFC0
01FFC0
00FF80
00FF00
007F00
007F00
007F00
003F00
003F00
003F00
001F00
001E00
001E00
001E00
001E00
001E00
001E00
001E00
001E00
000E00
ENDCHAR
STARTCHAR Zacute
ENCODING 377
SWIDTH 695 0
DWIDTH 22 0
BBX 22 34 1 -1
BITMAP
000060
0000F0
0001F0
0003F8
0007FC
001FE0
001F00
001000
000000
077800
7FFFC0
FFFFF8
7FFFF0
7FFFE0
3FFFE0
3FFFC0
1FFFC0
1FFF80
1FFF80
1FFF00
1C7F00
10FC00
00F800
01F800
01F000
03E000
01E000
03C000
03C000
07FC00
07FC00
0FFC00
07F800
049800
ENDCHAR
STARTCHAR zacute
ENCODING 378
SWIDTH 622 0
DWIDTH 20 0
BBX 20 35 1 -2
BITMAP
000080
0003C0
0007C0
000FE0
001FF0
003F80
007C00
002000
000000
0FF800
FFFF80
FFFFC0
7FFF80
7FFF80
3FFF00
3FFF00
1FFF00
1FFF00
1FFE00
1FFE00
1CFC00
08F800
00F000
01F000
01E000
01E000
01C000
03C000
03C000
03FC00
07FC00
07F800
07F800
06F800
000800
ENDCHAR
STARTCHAR Zdotaccent
ENCODING 379
SWIDTH 695 0
DWIDTH 22 0
BBX 21 37 1 -1
BITMAP
01FE00
03FE00
01FE00
01FE00
01FE00
01FE00
01FE00
01FE00
01FE00
01C000
000000
000000
077800
7FFFC0
FFFFF8
7FFFF0
7FFFE0
3FFFE0
3FFFC0
1FFFC0
1FFF80
1FFF80
1FFF00
1C7F00
10FC00
00F800
01F800
01F000
03E000
01E000
03C000
03C000
07FC00
07FC00
0FFC00
07F800
049800
ENDCHAR
STARTCHAR zdotaccent
ENCODING 380
SWIDTH 622 0
DWIDTH 20 0
BBX 18 38 1 -2
BITMAP
07F800
0FF800
07F800
07F800
07F800
07F800
07F800
07F800
07F800
070000
000000
000000
0FF800
FFFF80
FFFFC0
7FFF80
7FFF80
3FFF00
3FFF00
1FFF00
1FFF00
1FFE00
1FFE00
1CFC00
08F800
00F000
01F000
01E000
01E000
01C000
03C000
03C000
03FC00
07FC00
07F800
07F800
06F800
000800
ENDCHAR
STARTCHAR Zcaron
ENCODING 381
SWIDTH 693 0
DWIDTH 22 0
BBX 21 42 1 -1
BITMAP
020200
060300
0F0780
0F0780
078F80
078F00
07DF00
03FE00
03FE00
01FC00
01FC00
01F800
000000
000000
000000
000000
000000
077800
7FFFC0
FFFFF8
7FFFF0
7FFFE0
3FFFE0
3FFFC0
1FFFC0
1FFF80
1FFF80
1FFF00
1C7F00
10FC00
00F800
01F800
01F000
03E000
01E000
03C000
03C000
07FC00
07FC00
0FFC00
07F800
049800
ENDCHAR
STARTCHAR zcaron
ENCODING 382
SWIDTH 621 0
DWIDTH 20 0
BBX 18 43 1 -2
BITMAP
080400
1C0E00
3C0F00
1E1F00
1E1E00
1F3E00
0FFC00
0FFC00
07F800
07F800
03F000
03F000
000000
000000
000000
000000
000000
0FF800
FFFF80
FFFFC0
7FFF80
7FFF80
3FFF00
3FFF00
1FFF00
1FFF00
1FFE00
1FFE00
1CFC00
08F800
00F000
01F000
01E000
01E000
01C000
03C000
03C000
03FC00
07FC00
07F800
07F800
06F800
000800
ENDCHAR
STARTCHAR DZ
ENCODING 497
SWIDTH 194 0
DWIDTH 6 0
BBX 1 1 0 0
BITMAP
00
ENDCHAR
STARTCHAR Dz
ENCODING 498
SWIDTH 194 0
DWIDTH 6 0
BBX 1 1 0 0
BITMAP
00
ENDCHAR
STARTCHAR dotlessj
ENCODING 567
SWIDTH 458 0
DWIDTH 15 0
BBX 15 25 -1 -1
BITMAP
0780
07FE
03FC
03FC
03FC
01F8
01F8
01F8
01F8
01F8
01F8
01F8
01F8
01F8
01F0
01F0
39F0
F9F0
78F0
7DF0
7DF0
7FF0
3FE0
1FE0
05A0
ENDCHAR
STARTCHAR circumflex
ENCODING 710
SWIDTH 528 0
DWIDTH 17 0
BBX 15 10 1 23
BITMAP
0FE0
0FE0
1FF0
1FF0
3FF8
3CF8
7C7C
783C
701E
E00C
ENDCHAR
STARTCHAR caron
ENCODING 711
SWIDTH 486 0
DWIDTH 16 0
BBX 14 11 1 23
BITMAP
6010
F038
F07C
F878
78F8
7DF0
3FF0
3FE0
1FE0
1FC0
1FC0
ENDCHAR
STARTCHAR breve
ENCODING 728
SWIDTH 464 0
DWIDTH 15 0
BBX 13 9 1 -2
BITMAP
F000
F078
70F0
78F0
7FF0
7FE0
2FE0
09C0
0140
ENDCHAR
STARTCHAR dotaccent
ENCODING 729
SWIDTH 388 0
DWIDTH 12 0
BBX 10 10 1 7
BITMAP
FF80
7F80
7F80
7F80
7FC0
7F80
3F80
3F80
3F80
3800
ENDCHAR
STARTCHAR ring
ENCODING 730
SWIDTH 370 0
DWIDTH 12 0
BBX 8 9 2 9
BITMAP
7E
FE
EF
C3
C3
E6
FE
7C
18
ENDCHAR
STARTCHAR ogonek
ENCODING 731
SWIDTH 360 0
DWIDTH 12 0
BBX 8 11 2 0
BITMAP
F0
F0
E0
E0
E0
E0
F0
FF
FF
7F
1F
ENDCHAR
STARTCHAR tilde
ENCODING 732
SWIDTH 535 0
DWIDTH 17 0
BBX 15 8 1 -3
BITMAP
0020
3078
79FC
FFFC
7FFE
3FFC
1F18
0400
ENDCHAR
STARTCHAR hungarumlaut
ENCODING 733
SWIDTH 554 0
DWIDTH 18 0
BBX 16 10 1 23
BITMAP
0C18
1E1E
1F3F
1F3E
3E7C
3C78
7870
70E0
E0C0
40C0
ENDCHAR
STARTCHAR dotaccentcmb
ENCODING 775
SWIDTH 396 0
DWIDTH 13 0
BBX 10 10 1 12
BITMAP
BF80
7F80
7F80
7F80
7FC0
3FC0
3FC0
3F80
3F80
3C80
ENDCHAR
STARTCHAR uni030F
ENCODING 783
SWIDTH 549 0
DWIDTH 18 0
BBX 16 10 0 23
BITMAP
0C18
3C38
FCFC
7E7C
3E3C
1F1E
0F1E
070F
0387
0183
ENDCHAR
STARTCHAR uni0311
ENCODING 785
SWIDTH 490 0
DWIDTH 16 0
BBX 12 8 2 12
BITMAP
0F00
7FC0
7FC0
7FE0
F9E0
F0F0
F0F0
F0F0
ENDCHAR
STARTCHAR uni0326
ENCODING 806
SWIDTH 360 0
DWIDTH 12 0
BBX 8 14 2 -3
BITMAP
FF
FF
FF
FF
FF
FF
FF
FF
0F
0F
0E
0E
0E
0E
ENDCHAR
STARTCHAR endash
ENCODING 8211
SWIDTH 478 0
DWIDTH 15 0
BBX 12 6 2 9
BITMAP
FFF0
FFE0
FFE0
FFE0
FFE0
3B60
ENDCHAR
STARTCHAR emdash
ENCODING 8212
SWIDTH 567 0
DWIDTH 18 0
BBX 15 6 2 9
BITMAP
FFFE
FFFC
FFFC
FFFC
FFFC
39CC
ENDCHAR
STARTCHAR quoteleft
ENCODING 8216
SWIDTH 373 0
DWIDTH 12 0
BBX 8 16 2 8
BITMAP
10
70
70
F0
F0
E0
E0
FF
FF
FF
FF
FF
FF
FF
FF
FF
ENDCHAR
STARTCHAR quoteright
ENCODING 8217
SWIDTH 369 0
DWIDTH 12 0
BBX 9 16 1 8
BITMAP
2000
7F80
7F80
7F80
7F80
7F80
7F80
FF80
FF80
FF80
0780
0780
0700
0700
0700
0700
ENDCHAR
STARTCHAR quotesinglbase
ENCODING 8218
SWIDTH 369 0
DWIDTH 12 0
BBX 9 16 1 8
BITMAP
2000
7F80
7F80
7F80
7F80
7F80
7F80
FF80
FF80
FF80
0780
0780
0700
0700
0700
0700
ENDCHAR
STARTCHAR quotedblleft
ENCODING 8220
SWIDTH 687 0
DWIDTH 22 0
BBX 18 16 2 8
BITMAP
100400
701C00
701C00
F03C00
F03C00
E03800
E03800
FF3FC0
FF3FC0
FF3FC0
FF3FC0
FF3FC0
FF3FC0
FF3FC0
FF3FC0
FF3FC0
ENDCHAR
STARTCHAR quotedblright
ENCODING 8221
SWIDTH 677 0
DWIDTH 22 0
BBX 19 16 1 8
BITMAP
000800
7F1FE0
7F1FE0
7F1FE0
7F1FE0
7F1FE0
FF1FE0
FF1FE0
FF1FE0
FF1FE0
0701E0
0701C0
0701C0
0701C0
0701C0
0701C0
ENDCHAR
STARTCHAR quotedblbase
ENCODING 8222
SWIDTH 697 0
DWIDTH 22 0
BBX 20 16 1 -10
BITMAP
7F8FE0
7F8FF0
7F9FF0
7F9FF0
7F9FF0
7F9FF0
7F9FF0
FF9FF0
FF9FF0
4F89F0
0780E0
0780E0
0700E0
0700E0
0700E0
0700E0
ENDCHAR
STARTCHAR ellipsis
ENCODING 8230
SWIDTH 1462 0
DWIDTH 47 0
BBX 44 10 1 1
BITMAP
FF803FC01FF0
7F801FC00FF0
7F801FC00FF0
7F801FC00FF0
7F801FC007F0
7F801FC007F0
7F801FC007F0
7F801FC007F0
3F801FC007F0
200010000400
ENDCHAR
STARTCHAR guilsinglleft
ENCODING 8249
SWIDTH 459 0
DWIDTH 15 0
BBX 13 18 1 2
BITMAP
0FC8
0FF0
0FF0
1FC0
1FC0
3F80
7F80
FF00
FE00
FE00
7F00
7F00
3F80
1FC0
0FE0
07F0
03F8
0070
ENDCHAR
STARTCHAR guilsinglright
ENCODING 8250
SWIDTH 432 0
DWIDTH 14 0
BBX 12 17 1 3
BITMAP
FE00
FF00
7F00
3F00
1F80
1FC0
0FE0
07E0
07F0
0FE0
07F0
0FE0
1F80
3F80
7F00
FF00
FE00
ENDCHAR
STARTCHAR fraction
ENCODING 8260
SWIDTH 371 0
DWIDTH 12 0
BBX 12 25 0 -1
BITMAP
1F00
FFF0
7FE0
3FC0
1FC0
1FC0
1FC0
1FC0
1F80
1F80
1F80
1F80
1F80
1F80
0F80
0F80
0F80
0F80
0F80
0F00
0F00
0F00
0F00
0700
0100
ENDCHAR
STARTCHAR Euro
ENCODING 8364
SWIDTH 587 0
DWIDTH 19 0
BBX 17 31 0 -7
BITMAP
007800
03FE00
07FF00
0FFF80
0FFF80
1FFF80
1FFF80
1FFF80
1FFF80
0FFF80
0FFF80
0FDF80
0F8F80
FFEF80
7FC000
0F8000
0F8000
7FE000
07CF00
078F00
07DF00
07FE00
03FE00
03FC00
00B800
00B000
00B000
00B000
00A000
002000
002000
ENDCHAR
STARTCHAR trademark
ENCODING 8482
SWIDTH 785 0
DWIDTH 25 0
BBX 25 17 0 7
BITMAP
BF8FBE80
7FEF9F00
7FC7FE00
7FC7FE00
3FC7FE00
3FC7FE00
3FC3FE00
0707FE00
0703EE00
07036E00
07036E00
0603EC00
0703EC00
0703BC00
07030400
06000000
08000000
ENDCHAR
STARTCHAR minus
ENCODING 8722
SWIDTH 478 0
DWIDTH 15 0
BBX 12 6 2 9
BITMAP
FFF0
FFE0
FFE0
FFE0
FFE0
3B60
ENDCHAR
STARTCHAR commaaccent
ENCODING 63171
SWIDTH 360 0
DWIDTH 12 0
BBX 9 16 1 -5
BITMAP
7F80
7F80
7F80
7F80
7F80
7F80
7F80
FF80
FF80
4780
0780
0780
0700
0700
0700
0700
ENDCHAR
STARTCHAR .notdef
ENCODING -1
SWIDTH 365 0
DWIDTH 12 0
BBX 9 21 1 0
BITMAP
FF80
8180
8180
8180
8180
8180
8180
8180
8180
8180
8180
8180
8180
8180
8180
8180
8180
8180
8180
8180
FF80
ENDCHAR
STARTCHAR .null
ENCODING -1
SWIDTH 0 0
DWIDTH 0 0
BBX 1 1 0 0
BITMAP
00
ENDCHAR
STARTCHAR nonmarkingreturn
ENCODING -1
SWIDTH 333 0
DWIDTH 11 0
BBX 1 1 0 0
BITMAP
00
ENDCHAR
ENDFONT
